<svg width="628" height="628" xmlns="http://www.w3.org/2000/svg" viewBox="0 0 630 630" preserveAspectRatio="xMidYMid meet">
 <metadata>Created by potrace 1.15, written by Peter Selinger 2001-2017</metadata>

 <g>
  <title>background</title>
  <rect fill="none" id="canvas_background" height="630" width="630" y="-1" x="-1"/>
 </g>
 <g>
  <title>Layer 1</title>
  <g id="svg_1" transform="translate(0,600) scale(0.100000,-0.100000) ">
   <path id="svg_2" d="m1530,5765l0,-85l-655,0l-655,0l0,-205c0,-130 4,-205 10,-205c6,0 10,-39 10,-96c0,-53 4,-93 9,-90c13,8 21,-30 21,-101c0,-35 4,-63 10,-63c6,0 10,-24 10,-54c0,-30 5,-58 10,-61c5,-3 10,-29 10,-56c0,-35 4,-51 15,-55c10,-4 15,-20 15,-49c0,-24 4,-47 10,-50c5,-3 10,-26 10,-51c0,-24 5,-44 10,-44c6,0 10,-14 10,-31c0,-17 7,-37 15,-45c8,-9 15,-31 15,-50c0,-19 5,-34 10,-34c6,0 10,-16 10,-35c0,-19 5,-35 10,-35c6,0 10,-9 10,-21c0,-11 7,-27 15,-35c8,-9 15,-26 15,-40c0,-13 5,-24 10,-24c6,0 10,-13 10,-29c0,-17 5,-33 10,-36c6,-3 10,-15 10,-26c0,-11 7,-22 15,-25c8,-4 15,-14 15,-24c0,-11 5,-22 10,-25c6,-3 10,-14 10,-25c0,-10 7,-20 15,-24c8,-3 12,-12 9,-21c-4,-8 1,-17 10,-21c9,-3 16,-17 16,-30c0,-13 5,-24 10,-24c6,0 10,-9 10,-20c0,-11 4,-20 10,-20c5,0 17,-16 26,-35c9,-19 20,-35 25,-35c5,0 9,-11 9,-25c0,-14 5,-25 11,-25c14,0 38,-30 39,-48c0,-7 16,-28 35,-46c19,-19 35,-39 35,-46c0,-6 22,-34 49,-60c27,-27 47,-51 44,-54c-4,-3 -1,-6 5,-6c7,0 39,-27 72,-60c33,-33 65,-60 71,-60c5,0 7,-4 4,-10c-3,-5 3,-10 14,-10c12,0 21,-4 21,-10c0,-5 6,-10 14,-10c8,0 16,-7 20,-15c3,-8 15,-15 26,-15c12,0 18,-4 15,-10c-3,-5 3,-10 14,-10c12,0 21,-4 21,-10c0,-5 7,-10 15,-10c9,0 18,-7 21,-15c4,-8 15,-15 25,-15c10,0 19,-4 19,-10c0,-5 9,-10 20,-10c11,0 20,-4 20,-9c0,-5 11,-12 25,-15c14,-4 23,-11 20,-16c-3,-6 3,-10 14,-10c12,0 21,-4 21,-10c0,-5 11,-10 25,-10c14,0 25,-4 25,-10c0,-5 9,-10 20,-10c11,0 23,-7 26,-15c4,-8 15,-15 25,-15c10,0 19,-4 19,-10c0,-5 11,-10 25,-10c14,0 25,-4 25,-10c0,-5 9,-10 20,-10c11,0 23,-7 26,-15c4,-8 17,-15 31,-15c13,0 21,-4 18,-10c-3,-5 2,-10 13,-10c25,0 94,-34 86,-43c-4,-4 7,-7 24,-7c18,0 32,-4 32,-10c0,-5 11,-10 25,-10c14,0 25,-4 25,-10c0,-5 9,-10 20,-10c11,0 23,-7 26,-15c4,-9 19,-15 35,-15c16,0 29,-4 29,-10c0,-5 9,-10 21,-10c11,0 27,-7 35,-15c9,-8 24,-15 35,-15c11,0 17,-4 14,-10c-4,-6 5,-10 19,-10c14,0 26,-4 26,-10c0,-5 9,-10 21,-10c11,0 27,-7 35,-15c9,-8 24,-15 35,-15c11,0 17,-4 14,-10c-3,-5 1,-10 10,-10c18,0 76,-56 67,-64c-3,-3 2,-6 11,-6c10,0 17,-3 17,-7c0,-10 45,-63 54,-63c3,0 33,-27 66,-60c33,-33 67,-60 77,-60c9,0 13,-3 9,-7c-3,-4 12,-15 34,-25c22,-10 40,-23 40,-28c0,-6 7,-10 15,-10c8,0 15,-4 15,-10c0,-5 7,-10 15,-10c8,0 23,-4 33,-9c9,-5 25,-12 35,-15c10,-3 15,-10 12,-16c-4,-6 7,-10 27,-10l33,0l-3,-455c-1,-289 -6,-455 -12,-455c-6,0 -10,-34 -10,-80c0,-47 -4,-80 -10,-80c-5,0 -10,-11 -10,-24c0,-14 -7,-31 -15,-40c-8,-8 -15,-24 -15,-36c0,-12 -4,-18 -10,-15c-5,3 -10,-1 -10,-9c0,-9 -4,-16 -10,-16c-5,0 -10,-7 -10,-16c0,-17 -82,-104 -99,-104c-6,0 -11,-4 -11,-10c0,-5 -9,-10 -21,-10c-11,0 -17,-4 -14,-10c3,-5 -3,-10 -13,-10c-11,0 -22,-7 -26,-15c-3,-8 -15,-15 -26,-15c-11,0 -20,-4 -20,-10c0,-5 -16,-10 -36,-10c-21,0 -33,-4 -29,-10c4,-6 -7,-10 -27,-10c-51,0 -78,-11 -78,-30c0,-10 7,-21 16,-24c20,-8 1568,-8 1588,0c9,3 16,14 16,24c0,19 -27,30 -78,30c-20,0 -31,4 -27,10c4,6 -8,10 -29,10c-20,0 -36,5 -36,10c0,6 -9,10 -20,10c-11,0 -23,7 -26,15c-4,8 -15,15 -26,15c-10,0 -16,4 -13,10c3,5 -3,10 -14,10c-12,0 -21,5 -21,10c0,6 -5,10 -11,10c-17,0 -99,87 -99,104c0,9 -4,16 -10,16c-5,0 -10,7 -10,16c0,8 -4,12 -10,9c-5,-3 -10,3 -10,15c0,12 -7,28 -15,36c-8,9 -15,26 -15,40c0,13 -4,24 -10,24c-6,0 -10,33 -10,80c0,46 -4,80 -10,80c-6,0 -11,166 -12,455l-3,455l33,0c20,0 31,4 27,10c-3,6 2,13 12,16c10,3 26,10 35,15c10,5 25,9 33,9c8,0 15,5 15,10c0,6 7,10 15,10c8,0 15,4 15,10c0,5 18,18 40,28c22,10 37,21 34,25c-4,4 0,7 9,7c10,0 44,27 77,60c33,33 63,60 66,60c9,0 54,53 54,63c0,4 7,7 17,7c9,0 14,3 11,6c-9,8 49,64 67,64c9,0 13,5 10,10c-3,6 3,10 14,10c11,0 26,7 35,15c8,8 24,15 35,15c12,0 21,5 21,10c0,6 12,10 26,10c14,0 23,4 19,10c-3,6 3,10 14,10c11,0 26,7 35,15c8,8 24,15 35,15c12,0 21,5 21,10c0,6 13,10 29,10c16,0 31,6 35,15c3,8 15,15 26,15c11,0 20,5 20,10c0,6 11,10 25,10c14,0 25,5 25,10c0,6 14,10 32,10c17,0 28,3 24,7c-8,9 61,43 86,43c11,0 16,5 13,10c-3,6 5,10 18,10c14,0 27,7 31,15c3,8 15,15 26,15c11,0 20,5 20,10c0,6 11,10 25,10c14,0 25,5 25,10c0,6 9,10 19,10c10,0 21,7 25,15c3,8 15,15 26,15c11,0 20,5 20,10c0,6 11,10 25,10c14,0 25,5 25,10c0,6 9,10 21,10c11,0 17,4 14,10c-3,5 6,12 20,16c14,3 25,10 25,15c0,5 9,9 20,9c11,0 20,5 20,10c0,6 9,10 19,10c10,0 21,7 25,15c3,8 12,15 21,15c8,0 15,5 15,10c0,6 9,10 21,10c11,0 17,5 14,10c-3,6 3,10 15,10c11,0 23,7 26,15c4,8 12,15 20,15c8,0 14,5 14,10c0,6 9,10 21,10c11,0 17,5 14,10c-3,6 -1,10 4,10c6,0 38,27 71,60c33,33 65,60 72,60c6,0 9,3 5,6c-3,3 17,27 44,54c27,26 49,54 49,60c0,7 16,27 35,46c19,18 35,39 35,46c1,18 25,48 39,48c6,0 11,11 11,25c0,14 4,25 9,25c5,0 16,16 25,35c9,19 21,35 26,35c6,0 10,9 10,20c0,11 5,20 10,20c6,0 10,11 10,24c0,13 7,27 16,30c9,4 14,13 10,21c-3,9 1,18 9,21c8,4 15,14 15,24c0,11 5,22 10,25c6,3 10,14 10,25c0,10 7,20 15,24c8,3 15,14 15,25c0,11 4,23 10,26c6,3 10,19 10,36c0,16 5,29 10,29c6,0 10,11 10,24c0,14 7,31 15,40c8,8 15,24 15,35c0,12 5,21 10,21c6,0 10,16 10,35c0,19 5,35 10,35c6,0 10,15 10,34c0,19 7,41 15,50c8,8 15,28 15,45c0,17 5,31 10,31c6,0 10,20 10,44c0,25 5,48 10,51c6,3 10,26 10,50c0,29 5,45 15,49c11,4 15,20 15,55c0,27 5,53 10,56c6,3 10,31 10,61c0,30 5,54 10,54c6,0 10,28 10,63c0,71 8,109 21,101c5,-3 9,37 9,90c0,57 4,96 10,96c6,0 10,75 10,205l0,205l-655,0l-655,0l0,85l0,85l-1610,0l-1610,0l0,-85zm4080,-560c0,-37 -4,-65 -10,-65c-6,0 -10,-30 -10,-69c0,-52 -4,-70 -15,-75c-11,-4 -15,-21 -15,-61c0,-30 -4,-55 -10,-55c-6,0 -10,-27 -10,-60c0,-33 -4,-60 -10,-60c-5,0 -10,-20 -10,-44c0,-30 -5,-46 -15,-50c-9,-3 -15,-18 -15,-35c0,-16 -4,-33 -10,-36c-5,-3 -10,-24 -10,-45c0,-21 -4,-42 -10,-45c-5,-3 -10,-22 -10,-41c0,-24 -5,-34 -15,-34c-11,0 -15,-11 -15,-36c0,-21 -4,-33 -10,-29c-6,3 -10,-5 -10,-19c0,-14 -4,-28 -10,-31c-5,-3 -10,-15 -10,-25c0,-10 -7,-25 -15,-34c-8,-8 -15,-24 -15,-35c0,-12 -4,-21 -10,-21c-5,0 -10,-11 -10,-25c0,-14 -4,-25 -10,-25c-5,0 -10,-9 -10,-19c0,-10 -7,-21 -15,-25c-8,-3 -15,-15 -15,-26c0,-11 -4,-20 -10,-20c-5,0 -10,-9 -10,-19c0,-10 -11,-29 -25,-42c-13,-13 -25,-32 -25,-41c0,-10 -4,-18 -10,-18c-5,0 -10,-9 -10,-20c0,-11 -4,-20 -10,-20c-5,0 -10,-7 -10,-15c0,-8 -5,-15 -11,-15c-15,0 -39,-26 -39,-42c-1,-19 -25,-48 -40,-48c-7,0 -10,-3 -7,-6c7,-8 -36,-44 -52,-44c-6,0 -11,-4 -11,-10c0,-5 -7,-10 -16,-10c-8,0 -13,-4 -10,-8c6,-9 -29,-42 -44,-42c-6,0 -10,-4 -10,-10c0,-5 -7,-10 -16,-10c-8,0 -12,-4 -9,-10c3,-5 0,-10 -8,-10c-8,0 -32,-18 -55,-40c-22,-22 -45,-40 -51,-40c-6,0 -11,-4 -11,-10c0,-5 -7,-10 -15,-10c-8,0 -15,-4 -15,-10c0,-5 -5,-10 -10,-10c-10,0 -22,-8 -55,-37c-7,-7 -18,-13 -24,-13c-6,0 -11,-4 -11,-10c0,-5 -9,-10 -19,-10c-10,0 -21,-7 -25,-15c-3,-8 -12,-15 -21,-15c-8,0 -15,-4 -15,-10c0,-5 -12,-10 -26,-10c-14,0 -23,-4 -19,-10c3,-6 -5,-10 -18,-10c-14,0 -27,-7 -31,-15c-3,-8 -16,-15 -30,-15c-14,0 -28,-4 -31,-10c-8,-12 -45,-13 -45,-1c0,5 7,11 15,15c8,3 15,15 15,26c0,11 5,20 10,20c6,0 10,13 10,29c0,17 5,33 10,36c6,3 10,14 10,25c0,10 7,20 15,24c9,3 15,18 15,36c0,16 5,30 10,30c6,0 10,16 10,35c0,19 5,35 10,35c6,0 10,11 10,24c0,13 7,26 15,30c9,3 15,18 15,35c0,16 5,33 10,36c6,3 10,24 10,46c0,21 5,39 10,39c6,0 10,16 10,35c0,22 6,38 15,41c10,4 15,20 15,50c0,24 5,44 10,44c6,0 10,20 10,45c0,25 5,45 10,45c6,0 10,23 10,50c0,38 4,50 15,50c11,0 15,13 15,54c0,30 5,58 10,61c6,3 10,34 10,69c0,34 5,67 11,73c7,7 12,49 13,97c1,58 5,87 14,90c9,4 12,77 12,316l0,310l430,0l430,0l0,-65zm-4080,5c0,-22 -4,-40 -10,-40c-5,0 -10,-11 -10,-25c0,-14 5,-25 10,-25c6,0 10,-85 10,-235c0,-179 3,-237 13,-241c8,-3 12,-32 13,-90c1,-48 6,-90 13,-97c6,-6 11,-39 11,-73c0,-35 5,-66 10,-69c6,-3 10,-31 10,-61c0,-41 4,-54 15,-54c11,0 15,-12 15,-50c0,-27 5,-50 10,-50c6,0 10,-20 10,-45c0,-25 5,-45 10,-45c6,0 10,-20 10,-44c0,-30 5,-46 15,-50c9,-3 15,-19 15,-41c0,-19 5,-35 10,-35c6,0 10,-18 10,-39c0,-22 5,-43 10,-46c6,-3 10,-20 10,-36c0,-17 6,-32 15,-35c8,-4 15,-17 15,-30c0,-13 5,-24 10,-24c6,0 10,-16 10,-35c0,-19 5,-35 10,-35c6,0 10,-14 10,-30c0,-18 6,-33 15,-36c8,-4 15,-14 15,-24c0,-11 5,-22 10,-25c6,-3 10,-19 10,-36c0,-16 5,-29 10,-29c6,0 10,-9 10,-20c0,-11 7,-23 15,-26c8,-4 15,-10 15,-15c0,-12 -37,-11 -45,1c-3,6 -17,10 -31,10c-14,0 -27,7 -30,15c-4,8 -17,15 -31,15c-13,0 -21,4 -18,10c4,6 -5,10 -19,10c-14,0 -26,5 -26,10c0,6 -7,10 -15,10c-9,0 -18,7 -21,15c-4,8 -15,15 -25,15c-10,0 -19,5 -19,10c0,6 -5,10 -11,10c-6,0 -17,6 -24,13c-33,29 -45,37 -55,37c-5,0 -10,5 -10,10c0,6 -7,10 -15,10c-8,0 -15,5 -15,10c0,6 -5,10 -11,10c-6,0 -29,18 -51,40c-23,22 -47,40 -55,40c-8,0 -11,5 -8,10c3,6 -1,10 -9,10c-9,0 -16,5 -16,10c0,6 -4,10 -10,10c-15,0 -50,33 -44,42c3,4 -2,8 -10,8c-9,0 -16,5 -16,10c0,6 -5,10 -11,10c-16,0 -59,36 -52,44c3,3 0,6 -7,6c-15,0 -39,29 -40,48c0,16 -24,42 -39,42c-6,0 -11,7 -11,15c0,8 -4,15 -10,15c-5,0 -10,9 -10,20c0,11 -4,20 -10,20c-5,0 -10,8 -10,18c0,9 -12,28 -25,41c-14,13 -25,32 -25,42c0,10 -4,19 -10,19c-5,0 -10,9 -10,20c0,11 -7,23 -15,26c-8,4 -15,15 -15,25c0,10 -4,19 -10,19c-5,0 -10,11 -10,25c0,14 -4,25 -10,25c-5,0 -10,9 -10,21c0,11 -7,27 -15,35c-8,9 -15,24 -15,34c0,10 -4,22 -10,25c-5,3 -10,17 -10,31c0,14 -4,22 -10,19c-6,-4 -10,8 -10,29c0,25 -4,36 -15,36c-10,0 -15,10 -15,34c0,19 -4,38 -10,41c-5,3 -10,24 -10,45c0,21 -4,42 -10,45c-5,3 -10,20 -10,36c0,17 -6,32 -15,35c-10,4 -15,20 -15,50c0,24 -4,44 -10,44c-5,0 -10,24 -10,54c0,30 -4,58 -10,61c-5,3 -10,31 -10,61c0,39 -4,56 -15,60c-11,5 -15,23 -15,75c0,39 -4,69 -10,69c-5,0 -10,25 -10,55l0,55l430,0l430,0l0,-40z"/>
   <path id="svg_3" d="m2000,230l0,-380l1045,0l1045,0l0,380l0,380l-1045,0l-1045,0l0,-380z"/>
  </g>
 </g>
</svg>
