<?xml version="1.0" standalone="no"?>
<!DOCTYPE svg PUBLIC "-//W3C//DTD SVG 20010904//EN"
 "http://www.w3.org/TR/2001/REC-SVG-20010904/DTD/svg10.dtd">
<svg version="1.0" xmlns="http://www.w3.org/2000/svg"
 width="600.000000pt" height="600.000000pt" viewBox="0 0 600.000000 600.000000"
 preserveAspectRatio="xMidYMid meet">
<metadata>
Created by potrace 1.15, written by Peter Selinger 2001-2017
</metadata>
<g transform="translate(0.000000,600.000000) scale(0.100000,-0.100000)">
<path d="M1390 5915 l0 -85 -655 0 -655 0 0 -205 c0 -130 4 -205 10 -205 6 0
10 -39 10 -96 0 -53 4 -93 9 -90 13 8 21 -30 21 -101 0 -35 4 -63 10 -63 6 0
10 -24 10 -54 0 -30 5 -58 10 -61 5 -3 10 -29 10 -56 0 -35 4 -51 15 -55 10
-4 15 -20 15 -49 0 -24 4 -47 10 -50 5 -3 10 -26 10 -51 0 -24 5 -44 10 -44 6
0 10 -14 10 -31 0 -17 7 -37 15 -45 8 -9 15 -31 15 -50 0 -19 5 -34 10 -34 6
0 10 -16 10 -35 0 -19 5 -35 10 -35 6 0 10 -9 10 -21 0 -11 7 -27 15 -35 8 -9
15 -26 15 -40 0 -13 5 -24 10 -24 6 0 10 -13 10 -29 0 -17 5 -33 10 -36 6 -3
10 -15 10 -26 0 -11 7 -22 15 -25 8 -4 15 -14 15 -24 0 -11 5 -22 10 -25 6 -3
10 -14 10 -25 0 -10 7 -20 15 -24 8 -3 12 -12 9 -21 -4 -8 1 -17 10 -21 9 -3
16 -17 16 -30 0 -13 5 -24 10 -24 6 0 10 -9 10 -20 0 -11 4 -20 10 -20 5 0 17
-16 26 -35 9 -19 20 -35 25 -35 5 0 9 -11 9 -25 0 -14 5 -25 11 -25 14 0 38
-30 39 -48 0 -7 16 -28 35 -46 19 -19 35 -39 35 -46 0 -6 22 -34 49 -60 27
-27 47 -51 44 -54 -4 -3 -1 -6 5 -6 7 0 39 -27 72 -60 33 -33 65 -60 71 -60 5
0 7 -4 4 -10 -3 -5 3 -10 14 -10 12 0 21 -4 21 -10 0 -5 6 -10 14 -10 8 0 16
-7 20 -15 3 -8 15 -15 26 -15 12 0 18 -4 15 -10 -3 -5 3 -10 14 -10 12 0 21
-4 21 -10 0 -5 7 -10 15 -10 9 0 18 -7 21 -15 4 -8 15 -15 25 -15 10 0 19 -4
19 -10 0 -5 9 -10 20 -10 11 0 20 -4 20 -9 0 -5 11 -12 25 -15 14 -4 23 -11
20 -16 -3 -6 3 -10 14 -10 12 0 21 -4 21 -10 0 -5 11 -10 25 -10 14 0 25 -4
25 -10 0 -5 9 -10 20 -10 11 0 23 -7 26 -15 4 -8 15 -15 25 -15 10 0 19 -4 19
-10 0 -5 11 -10 25 -10 14 0 25 -4 25 -10 0 -5 9 -10 20 -10 11 0 23 -7 26
-15 4 -8 17 -15 31 -15 13 0 21 -4 18 -10 -3 -5 2 -10 13 -10 25 0 94 -34 86
-43 -4 -4 7 -7 24 -7 18 0 32 -4 32 -10 0 -5 11 -10 25 -10 14 0 25 -4 25 -10
0 -5 9 -10 20 -10 11 0 23 -7 26 -15 4 -9 19 -15 35 -15 16 0 29 -4 29 -10 0
-5 9 -10 21 -10 11 0 27 -7 35 -15 9 -8 24 -15 35 -15 11 0 17 -4 14 -10 -4
-6 5 -10 19 -10 14 0 26 -4 26 -10 0 -5 9 -10 21 -10 11 0 27 -7 35 -15 9 -8
24 -15 35 -15 11 0 17 -4 14 -10 -3 -5 1 -10 10 -10 18 0 76 -56 67 -64 -3 -3
2 -6 11 -6 10 0 17 -3 17 -7 0 -10 45 -63 54 -63 3 0 33 -27 66 -60 33 -33 67
-60 77 -60 9 0 13 -3 9 -7 -3 -4 12 -15 34 -25 22 -10 40 -23 40 -28 0 -6 7
-10 15 -10 8 0 15 -4 15 -10 0 -5 7 -10 15 -10 8 0 23 -4 33 -9 9 -5 25 -12
35 -15 10 -3 15 -10 12 -16 -4 -6 7 -10 27 -10 l33 0 -3 -455 c-1 -289 -6
-455 -12 -455 -6 0 -10 -34 -10 -80 0 -47 -4 -80 -10 -80 -5 0 -10 -11 -10
-24 0 -14 -7 -31 -15 -40 -8 -8 -15 -24 -15 -36 0 -12 -4 -18 -10 -15 -5 3
-10 -1 -10 -9 0 -9 -4 -16 -10 -16 -5 0 -10 -7 -10 -16 0 -17 -82 -104 -99
-104 -6 0 -11 -4 -11 -10 0 -5 -9 -10 -21 -10 -11 0 -17 -4 -14 -10 3 -5 -3
-10 -13 -10 -11 0 -22 -7 -26 -15 -3 -8 -15 -15 -26 -15 -11 0 -20 -4 -20 -10
0 -5 -16 -10 -36 -10 -21 0 -33 -4 -29 -10 4 -6 -7 -10 -27 -10 -51 0 -78 -11
-78 -30 0 -10 7 -21 16 -24 20 -8 1568 -8 1588 0 9 3 16 14 16 24 0 19 -27 30
-78 30 -20 0 -31 4 -27 10 4 6 -8 10 -29 10 -20 0 -36 5 -36 10 0 6 -9 10 -20
10 -11 0 -23 7 -26 15 -4 8 -15 15 -26 15 -10 0 -16 4 -13 10 3 5 -3 10 -14
10 -12 0 -21 5 -21 10 0 6 -5 10 -11 10 -17 0 -99 87 -99 104 0 9 -4 16 -10
16 -5 0 -10 7 -10 16 0 8 -4 12 -10 9 -5 -3 -10 3 -10 15 0 12 -7 28 -15 36
-8 9 -15 26 -15 40 0 13 -4 24 -10 24 -6 0 -10 33 -10 80 0 46 -4 80 -10 80
-6 0 -11 166 -12 455 l-3 455 33 0 c20 0 31 4 27 10 -3 6 2 13 12 16 10 3 26
10 35 15 10 5 25 9 33 9 8 0 15 5 15 10 0 6 7 10 15 10 8 0 15 4 15 10 0 5 18
18 40 28 22 10 37 21 34 25 -4 4 0 7 9 7 10 0 44 27 77 60 33 33 63 60 66 60
9 0 54 53 54 63 0 4 7 7 17 7 9 0 14 3 11 6 -9 8 49 64 67 64 9 0 13 5 10 10
-3 6 3 10 14 10 11 0 26 7 35 15 8 8 24 15 35 15 12 0 21 5 21 10 0 6 12 10
26 10 14 0 23 4 19 10 -3 6 3 10 14 10 11 0 26 7 35 15 8 8 24 15 35 15 12 0
21 5 21 10 0 6 13 10 29 10 16 0 31 6 35 15 3 8 15 15 26 15 11 0 20 5 20 10
0 6 11 10 25 10 14 0 25 5 25 10 0 6 14 10 32 10 17 0 28 3 24 7 -8 9 61 43
86 43 11 0 16 5 13 10 -3 6 5 10 18 10 14 0 27 7 31 15 3 8 15 15 26 15 11 0
20 5 20 10 0 6 11 10 25 10 14 0 25 5 25 10 0 6 9 10 19 10 10 0 21 7 25 15 3
8 15 15 26 15 11 0 20 5 20 10 0 6 11 10 25 10 14 0 25 5 25 10 0 6 9 10 21
10 11 0 17 4 14 10 -3 5 6 12 20 16 14 3 25 10 25 15 0 5 9 9 20 9 11 0 20 5
20 10 0 6 9 10 19 10 10 0 21 7 25 15 3 8 12 15 21 15 8 0 15 5 15 10 0 6 9
10 21 10 11 0 17 5 14 10 -3 6 3 10 15 10 11 0 23 7 26 15 4 8 12 15 20 15 8
0 14 5 14 10 0 6 9 10 21 10 11 0 17 5 14 10 -3 6 -1 10 4 10 6 0 38 27 71 60
33 33 65 60 72 60 6 0 9 3 5 6 -3 3 17 27 44 54 27 26 49 54 49 60 0 7 16 27
35 46 19 18 35 39 35 46 1 18 25 48 39 48 6 0 11 11 11 25 0 14 4 25 9 25 5 0
16 16 25 35 9 19 21 35 26 35 6 0 10 9 10 20 0 11 5 20 10 20 6 0 10 11 10 24
0 13 7 27 16 30 9 4 14 13 10 21 -3 9 1 18 9 21 8 4 15 14 15 24 0 11 5 22 10
25 6 3 10 14 10 25 0 10 7 20 15 24 8 3 15 14 15 25 0 11 4 23 10 26 6 3 10
19 10 36 0 16 5 29 10 29 6 0 10 11 10 24 0 14 7 31 15 40 8 8 15 24 15 35 0
12 5 21 10 21 6 0 10 16 10 35 0 19 5 35 10 35 6 0 10 15 10 34 0 19 7 41 15
50 8 8 15 28 15 45 0 17 5 31 10 31 6 0 10 20 10 44 0 25 5 48 10 51 6 3 10
26 10 50 0 29 5 45 15 49 11 4 15 20 15 55 0 27 5 53 10 56 6 3 10 31 10 61 0
30 5 54 10 54 6 0 10 28 10 63 0 71 8 109 21 101 5 -3 9 37 9 90 0 57 4 96 10
96 6 0 10 75 10 205 l0 205 -655 0 -655 0 0 85 0 85 -1610 0 -1610 0 0 -85z
m4080 -560 c0 -37 -4 -65 -10 -65 -6 0 -10 -30 -10 -69 0 -52 -4 -70 -15 -75
-11 -4 -15 -21 -15 -61 0 -30 -4 -55 -10 -55 -6 0 -10 -27 -10 -60 0 -33 -4
-60 -10 -60 -5 0 -10 -20 -10 -44 0 -30 -5 -46 -15 -50 -9 -3 -15 -18 -15 -35
0 -16 -4 -33 -10 -36 -5 -3 -10 -24 -10 -45 0 -21 -4 -42 -10 -45 -5 -3 -10
-22 -10 -41 0 -24 -5 -34 -15 -34 -11 0 -15 -11 -15 -36 0 -21 -4 -33 -10 -29
-6 3 -10 -5 -10 -19 0 -14 -4 -28 -10 -31 -5 -3 -10 -15 -10 -25 0 -10 -7 -25
-15 -34 -8 -8 -15 -24 -15 -35 0 -12 -4 -21 -10 -21 -5 0 -10 -11 -10 -25 0
-14 -4 -25 -10 -25 -5 0 -10 -9 -10 -19 0 -10 -7 -21 -15 -25 -8 -3 -15 -15
-15 -26 0 -11 -4 -20 -10 -20 -5 0 -10 -9 -10 -19 0 -10 -11 -29 -25 -42 -13
-13 -25 -32 -25 -41 0 -10 -4 -18 -10 -18 -5 0 -10 -9 -10 -20 0 -11 -4 -20
-10 -20 -5 0 -10 -7 -10 -15 0 -8 -5 -15 -11 -15 -15 0 -39 -26 -39 -42 -1
-19 -25 -48 -40 -48 -7 0 -10 -3 -7 -6 7 -8 -36 -44 -52 -44 -6 0 -11 -4 -11
-10 0 -5 -7 -10 -16 -10 -8 0 -13 -4 -10 -8 6 -9 -29 -42 -44 -42 -6 0 -10 -4
-10 -10 0 -5 -7 -10 -16 -10 -8 0 -12 -4 -9 -10 3 -5 0 -10 -8 -10 -8 0 -32
-18 -55 -40 -22 -22 -45 -40 -51 -40 -6 0 -11 -4 -11 -10 0 -5 -7 -10 -15 -10
-8 0 -15 -4 -15 -10 0 -5 -5 -10 -10 -10 -10 0 -22 -8 -55 -37 -7 -7 -18 -13
-24 -13 -6 0 -11 -4 -11 -10 0 -5 -9 -10 -19 -10 -10 0 -21 -7 -25 -15 -3 -8
-12 -15 -21 -15 -8 0 -15 -4 -15 -10 0 -5 -12 -10 -26 -10 -14 0 -23 -4 -19
-10 3 -6 -5 -10 -18 -10 -14 0 -27 -7 -31 -15 -3 -8 -16 -15 -30 -15 -14 0
-28 -4 -31 -10 -8 -12 -45 -13 -45 -1 0 5 7 11 15 15 8 3 15 15 15 26 0 11 5
20 10 20 6 0 10 13 10 29 0 17 5 33 10 36 6 3 10 14 10 25 0 10 7 20 15 24 9
3 15 18 15 36 0 16 5 30 10 30 6 0 10 16 10 35 0 19 5 35 10 35 6 0 10 11 10
24 0 13 7 26 15 30 9 3 15 18 15 35 0 16 5 33 10 36 6 3 10 24 10 46 0 21 5
39 10 39 6 0 10 16 10 35 0 22 6 38 15 41 10 4 15 20 15 50 0 24 5 44 10 44 6
0 10 20 10 45 0 25 5 45 10 45 6 0 10 23 10 50 0 38 4 50 15 50 11 0 15 13 15
54 0 30 5 58 10 61 6 3 10 34 10 69 0 34 5 67 11 73 7 7 12 49 13 97 1 58 5
87 14 90 9 4 12 77 12 316 l0 310 430 0 430 0 0 -65z m-4080 5 c0 -22 -4 -40
-10 -40 -5 0 -10 -11 -10 -25 0 -14 5 -25 10 -25 6 0 10 -85 10 -235 0 -179 3
-237 13 -241 8 -3 12 -32 13 -90 1 -48 6 -90 13 -97 6 -6 11 -39 11 -73 0 -35
5 -66 10 -69 6 -3 10 -31 10 -61 0 -41 4 -54 15 -54 11 0 15 -12 15 -50 0 -27
5 -50 10 -50 6 0 10 -20 10 -45 0 -25 5 -45 10 -45 6 0 10 -20 10 -44 0 -30 5
-46 15 -50 9 -3 15 -19 15 -41 0 -19 5 -35 10 -35 6 0 10 -18 10 -39 0 -22 5
-43 10 -46 6 -3 10 -20 10 -36 0 -17 6 -32 15 -35 8 -4 15 -17 15 -30 0 -13 5
-24 10 -24 6 0 10 -16 10 -35 0 -19 5 -35 10 -35 6 0 10 -14 10 -30 0 -18 6
-33 15 -36 8 -4 15 -14 15 -24 0 -11 5 -22 10 -25 6 -3 10 -19 10 -36 0 -16 5
-29 10 -29 6 0 10 -9 10 -20 0 -11 7 -23 15 -26 8 -4 15 -10 15 -15 0 -12 -37
-11 -45 1 -3 6 -17 10 -31 10 -14 0 -27 7 -30 15 -4 8 -17 15 -31 15 -13 0
-21 4 -18 10 4 6 -5 10 -19 10 -14 0 -26 5 -26 10 0 6 -7 10 -15 10 -9 0 -18
7 -21 15 -4 8 -15 15 -25 15 -10 0 -19 5 -19 10 0 6 -5 10 -11 10 -6 0 -17 6
-24 13 -33 29 -45 37 -55 37 -5 0 -10 5 -10 10 0 6 -7 10 -15 10 -8 0 -15 5
-15 10 0 6 -5 10 -11 10 -6 0 -29 18 -51 40 -23 22 -47 40 -55 40 -8 0 -11 5
-8 10 3 6 -1 10 -9 10 -9 0 -16 5 -16 10 0 6 -4 10 -10 10 -15 0 -50 33 -44
42 3 4 -2 8 -10 8 -9 0 -16 5 -16 10 0 6 -5 10 -11 10 -16 0 -59 36 -52 44 3
3 0 6 -7 6 -15 0 -39 29 -40 48 0 16 -24 42 -39 42 -6 0 -11 7 -11 15 0 8 -4
15 -10 15 -5 0 -10 9 -10 20 0 11 -4 20 -10 20 -5 0 -10 8 -10 18 0 9 -12 28
-25 41 -14 13 -25 32 -25 42 0 10 -4 19 -10 19 -5 0 -10 9 -10 20 0 11 -7 23
-15 26 -8 4 -15 15 -15 25 0 10 -4 19 -10 19 -5 0 -10 11 -10 25 0 14 -4 25
-10 25 -5 0 -10 9 -10 21 0 11 -7 27 -15 35 -8 9 -15 24 -15 34 0 10 -4 22
-10 25 -5 3 -10 17 -10 31 0 14 -4 22 -10 19 -6 -4 -10 8 -10 29 0 25 -4 36
-15 36 -10 0 -15 10 -15 34 0 19 -4 38 -10 41 -5 3 -10 24 -10 45 0 21 -4 42
-10 45 -5 3 -10 20 -10 36 0 17 -6 32 -15 35 -10 4 -15 20 -15 50 0 24 -4 44
-10 44 -5 0 -10 24 -10 54 0 30 -4 58 -10 61 -5 3 -10 31 -10 61 0 39 -4 56
-15 60 -11 5 -15 23 -15 75 0 39 -4 69 -10 69 -5 0 -10 25 -10 55 l0 55 430 0
430 0 0 -40z"/>
<path d="M1860 380 l0 -380 1045 0 1045 0 0 380 0 380 -1045 0 -1045 0 0 -380z"/>
</g>
</svg>
