<?xml version="1.0" encoding="utf-8"?>
<!-- Svg Vector Icons : http://www.onlinewebfonts.com/icon -->
<!DOCTYPE svg PUBLIC "-//W3C//DTD SVG 1.1//EN" "http://www.w3.org/Graphics/SVG/1.1/DTD/svg11.dtd">
<svg version="1.1" xmlns="http://www.w3.org/2000/svg" xmlns:xlink="http://www.w3.org/1999/xlink" x="0px" y="0px" viewBox="0 0 1000 1000" xml:space="preserve">
<g><g transform="translate(0.000000,472.000000) scale(0.100000,-0.100000)"><path d="M197.4,4202c-105.3-44-99.6,164.7-95.7-3923.8c5.7-3739.9,5.7-3770.6,44-3812.7c21.1-23,578.3-314.1,1239-643.4c886.6-442.4,1219.8-601.3,1269.6-601.3c47.9,0,369.6,151.3,1210.3,572.6L5009.7-3636l1235.2-570.7c869.4-402.1,1256.2-570.7,1304.1-572.6c53.6,0,296.8,124.5,1158.6,593.6c599.4,327.5,1110.7,616.6,1137.5,643.4l47.9,46l5.7,3759.1c3.8,2659.9,0,3778.2-15.3,3829.9c-26.8,95.8-91.9,136-197.2,122.6c-57.4-5.8-361.9-162.8-1104.9-568.7c-563-308.3-1032.2-561.1-1043.7-561.1c-9.6,0-570.7,256.6-1246.6,568.7c-877.1,406-1244.7,566.8-1292.6,564.9c-46,0-400.2-168.5-1204.5-570.7l-1139.4-570.7l-1145.2,570.7C348.7,4228.8,308.4,4246,197.4,4202z M6244.9,3244.5c815.8-375.3,1265.8-574.5,1306-574.5c46,0,321.7,141.7,993.9,507.5c511.3,279.6,940.3,507.5,951.7,507.5c17.2,0,23-867.5,23-3485.2v-3485.2l-70.9-44c-141.7-86.2-1892-1034.1-1911.1-1034.1c-9.6,0-572.6,256.6-1248.6,568.7C5521-3440.7,5038.4-3228.1,5002-3228.1c-40.2,0-448.1-195.3-1208.3-574.5l-1149-574.5l-1078.1,540L490.4-3295.1l-5.7,3500.6c-1.9,2336.3,1.9,3498.7,15.3,3498.7c11.5,0,484.5-231.7,1053.2-517c739.2-369.6,1051.3-517,1095.4-515.1c42.1,0,432.8,185.8,1202.6,572.6c626.2,314.1,1141.3,572.6,1143.2,572.6C4998.2,3819,5559.3,3560.5,6244.9,3244.5z"/><path d="M5900.2,2453.6c-82.3-30.6-143.6-137.9-124.5-222.1c23-101.5,88.1-141.7,252.8-151.3c170.4-7.7,239.4,11.5,285.3,82.3c84.3,128.3-9.6,296.8-162.8,296.8c-40.2,0-97.7,3.8-128.3,9.6C5992.1,2472.8,5936.5,2467,5900.2,2453.6z"/><path d="M1149.1,2405.7c-49.8-46-61.3-68.9-61.3-137.9c0-68.9,11.5-91.9,61.3-137.9c99.6-90,241.3-67,294.9,47.9C1537.9,2373.2,1308.1,2549.4,1149.1,2405.7z"/><path d="M6846.2,2367.4c-172.4-109.2-109.2-319.8,109.1-365.8c168.5-36.4,243.2-28.7,306.4,34.5c113,113,55.5,281.5-111.1,325.5C6991.7,2405.7,6909.3,2405.7,6846.2,2367.4z"/><path d="M5201.2,2156.8c-49.8-11.5-189.6-107.2-248.9-172.3c-93.8-101.5-34.5-289.2,99.6-316c72.8-15.3,201.1,49.8,308.3,151.3c80.4,78.5,84.3,88.1,74.7,162.8C5417.6,2107,5314.2,2183.6,5201.2,2156.8z"/><path d="M7784.5,2076.4c-63.2-24.9-103.4-95.8-103.4-180c0-59.4,13.4-86.2,67-137.9c95.7-90,256.6-164.7,316-145.5c164.7,47.9,206.8,204.9,90,327.5c-59.4,65.1-231.7,155.1-289.2,153.2C7841.9,2093.6,7805.5,2085.9,7784.5,2076.4z"/><path d="M4308.8,1865.7c-191.5-32.6-371.5-180-440.4-363.8c-51.7-137.9-44-352.4,17.2-473c224.1-434.7,863.7-423.2,1057.1,19.2C5132.2,1478.9,4772.2,1944.2,4308.8,1865.7z"/><path d="M1662.3,1798.7c-68.9-28.7-109.2-88.1-113-170.4c-1.9-76.6,32.6-137.9,149.4-252.8c70.8-72.8,93.8-84.3,162.8-84.3c109.2,0,189.6,80.4,189.6,187.7c0,61.3-15.3,95.7-86.2,180C1850,1800.6,1761.9,1840.8,1662.3,1798.7z"/><path d="M8529.4,1429.1c-65.1-9.6-139.8-111.1-139.8-187.7c0-107.2,134-317.9,224.1-352.4c120.6-47.9,268.1,78.5,245.1,210.7c-13.4,70.8-107.2,248.9-151.3,285.3C8671.1,1415.7,8581.1,1438.7,8529.4,1429.1z"/><path d="M2346,1132.3c-46-40.2-55.5-63.2-55.5-137.9c0-76.6,9.6-97.7,59.4-143.6c90-78.5,270-141.7,350.4-120.6c68.9,17.2,124.5,78.5,143.6,160.9c24.9,114.9-158.9,260.4-354.3,281.5C2416.8,1178.2,2393.8,1172.5,2346,1132.3z"/><path d="M3439.4,1059.5c-155.1-47.9-208.7-109.1-195.3-226c15.3-141.7,109.2-193.4,285.3-157c128.3,26.8,216.4,80.4,252.8,151.3c59.4,114.9-44,273.8-174.3,270C3579.2,1097.8,3502.6,1080.6,3439.4,1059.5z"/><path d="M8763,460.1c-63.2-63.2-74.7-124.5-51.7-283.4c26.8-176.2,78.5-235.5,206.8-235.5c74.7,0,95.7,9.6,134,57.5c82.4,103.4,55.5,390.7-44,469.2C8937.3,523.3,8822.4,519.5,8763,460.1z"/><path d="M8780.3-505c-63.2-49.8-82.4-101.5-95.8-250.9c-15.3-157,5.7-218.3,91.9-262.4c78.5-40.2,141.7-32.5,206.8,26.8c67,57.5,93.8,149.4,95.7,306.4c0,88.1-7.7,111.1-55.5,158.9C8956.4-461,8845.4-451.4,8780.3-505z"/><path d="M8548.6-1428c-65.1-26.8-183.8-243.2-185.8-340.9c-1.9-72.8,7.7-91.9,63.2-141.7c55.5-49.8,74.7-57.5,141.7-47.9c42.1,5.7,91.9,26.8,111.1,46c51.7,51.7,151.3,252.8,151.3,304.5C8830.1-1466.3,8686.4-1372.5,8548.6-1428z"/><path d="M7776.8-1870.4c-174.3-53.6-354.3-237.4-400.2-409.8c-70.8-260.4,49.8-540,287.2-670.2c80.4-42.1,134-57.5,248.9-63.2c128.3-7.7,159-1.9,264.3,44c283.4,128.3,417.5,451.9,308.3,741.1c-49.8,134.1-176.2,270-302.6,325.5C8079.4-1857,7876.4-1839.7,7776.8-1870.4z"/><path d="M4033.1-2096.4c-126.4-51.7-155.1-218.3-53.6-310.2c76.6-67,312.1-95.8,406-47.9c149.4,78.5,137.9,281.5-21.1,344.7C4285.8-2077.2,4098.2-2071.5,4033.1-2096.4z"/><path d="M3190.5-2195.9c-237.5-76.6-308.3-220.2-172.4-356.2c59.4-59.4,76.6-67,139.8-59.4c38.3,5.7,122.6,30.6,185.8,55.5c185.8,74.7,235.5,220.2,111.1,335.1C3401.1-2171,3299.6-2161.5,3190.5-2195.9z"/><path d="M2162.1-2251.5c-277.7-46-494.1-298.8-494.1-574.5c0-216.4,153.2-451.9,350.4-538.1c296.8-130.2,668.3,24.9,779.4,321.7c78.5,212.5,38.3,436.6-109.2,599.4c-95.8,107.2-187.7,162.8-302.6,181.9c-42.1,7.6-90,15.3-105.3,19.2C2265.5-2240,2211.9-2243.8,2162.1-2251.5z"/><path d="M4981-2280.2c-72.8-38.3-103.4-109.2-90-203c13.4-97.7,57.5-137.9,199.2-180c216.4-63.2,348.5-11.5,350.4,139.8c0,120.6-53.6,180-201.1,222.1C5084.4-2257.2,5032.7-2253.4,4981-2280.2z"/><path d="M5884.8-2592.3c-49.8-47.9-61.3-72.8-61.3-137.9c0-141.7,145.5-229.8,381.1-229.8c105.3,0,174.2,72.8,174.2,185.8c0,137.9-88.1,199.1-335.1,227.9C5955.7-2534.9,5942.3-2538.7,5884.8-2592.3z"/><path d="M7020.4-2615.3c-126.4-23-174.2-51.7-208.7-124.5c-40.2-82.3-30.6-139.8,34.5-214.5c42.1-49.8,57.5-53.6,170.4-51.7c231.7,5.7,339,74.7,339,222.1c0,61.3-11.5,88.1-59.4,132.1C7233-2592.3,7179.4-2586.6,7020.4-2615.3z"/></g></g>
</svg>
