<?xml version="1.0" standalone="no"?>
<!DOCTYPE svg PUBLIC "-//W3C//DTD SVG 20010904//EN"
 "http://www.w3.org/TR/2001/REC-SVG-20010904/DTD/svg10.dtd">
<svg version="1.0" xmlns="http://www.w3.org/2000/svg"
 width="318.000000pt" height="318.000000pt" viewBox="0 0 318.000000 318.000000"
 preserveAspectRatio="xMidYMid meet">
<metadata>
Created by potrace 1.15, written by Peter Selinger 2001-2017
</metadata>
<g transform="translate(0.000000,318.000000) scale(0.100000,-0.100000)">
<path d="M1490 2999 c-55 -12 -351 -146 -377 -171 -39 -37 -62 -81 -103 -200
-21 -62 -52 -151 -69 -198 -17 -47 -31 -104 -31 -126 0 -49 9 -62 181 -275
121 -151 239 -307 374 -496 44 -62 83 -113 88 -113 4 0 13 11 19 25 l12 26 23
-28 c15 -17 26 -23 29 -16 11 25 165 240 281 390 145 188 207 260 137 158
-136 -196 -164 -240 -164 -253 0 -10 7 -8 26 7 72 56 102 -13 39 -88 -15 -16
-65 -54 -113 -83 -127 -77 -186 -141 -214 -231 -22 -68 -23 -89 -23 -352 0
-274 6 -342 42 -474 4 -16 2 -22 -4 -18 -14 9 -30 -11 -47 -59 -8 -21 -15 -31
-15 -21 -2 33 -31 79 -47 73 -11 -4 -14 -1 -9 13 51 161 70 596 34 785 -24
125 -90 209 -226 285 -43 24 -90 55 -105 69 -73 68 -46 161 29 102 43 -33 39
-14 -12 62 -64 97 -186 261 -190 256 -2 -2 3 -32 12 -68 17 -74 13 -164 -8
-185 -13 -13 -14 -10 -11 25 4 36 2 40 -30 53 -45 19 -68 57 -75 123 l-6 54
-29 -18 c-50 -29 -115 -109 -134 -164 -33 -100 -5 -222 74 -326 l25 -33 29 36
c36 43 76 65 121 65 103 0 60 -127 -56 -166 -36 -12 -82 -17 -152 -16 -196 2
-343 48 -419 133 -50 55 -66 102 -66 192 0 139 61 254 226 426 105 110 107
116 53 167 l-30 29 -34 -20 c-75 -44 -199 -152 -257 -224 -120 -149 -164 -290
-140 -452 26 -182 128 -303 310 -369 122 -44 207 -55 392 -51 379 9 391 8 438
-19 50 -28 74 -63 96 -140 36 -121 29 -352 -15 -510 -52 -189 -157 -297 -253
-260 -25 9 -39 6 -107 -27 -43 -21 -79 -43 -79 -48 0 -24 63 -85 105 -100 67
-26 183 -17 254 19 77 40 144 113 191 209 40 82 53 98 25 30 -11 -26 -13 -45
-6 -69 6 -22 6 -47 0 -70 -11 -40 -68 -108 -114 -136 -31 -18 -25 -22 30 -18
66 4 128 61 155 139 l17 51 12 -43 c27 -89 95 -147 171 -146 39 0 42 2 26 12
-47 29 -106 92 -117 124 -6 20 -9 57 -6 84 4 33 1 61 -9 85 -8 20 -13 38 -11
40 2 3 14 -21 25 -51 61 -159 187 -264 328 -273 121 -8 170 12 224 88 l20 28
-82 41 c-74 38 -84 40 -115 30 -156 -51 -285 209 -286 581 0 150 19 232 67
283 17 18 24 25 16 15 -12 -17 -12 -20 0 -28 8 -6 19 -10 23 -10 19 0 177 -86
234 -126 86 -61 176 -146 239 -226 31 -38 64 -68 76 -71 13 -2 -1 -5 -29 -6
l-53 -1 0 36 c0 29 -9 46 -42 83 -72 79 -81 77 -93 -14 -11 -78 -14 -80 -73
-48 -63 34 -127 94 -153 144 -20 40 -39 141 -32 169 3 12 -8 22 -46 38 -27 12
-56 22 -64 22 -28 0 -56 -107 -57 -213 0 -68 0 -69 53 -130 98 -115 152 -152
311 -216 27 -11 28 -14 23 -61 -6 -48 -6 -48 31 -63 20 -8 54 -17 74 -21 l37
-7 7 59 6 58 87 -4 c265 -12 466 123 526 355 19 73 19 229 0 309 -17 73 -44
144 -55 144 -4 0 -33 -16 -65 -35 -32 -19 -62 -36 -67 -37 -6 -2 -2 -26 9 -58
13 -39 18 -84 18 -155 0 -89 -3 -106 -27 -150 -14 -28 -47 -70 -73 -94 -48
-44 -146 -96 -168 -88 -6 2 5 10 26 17 20 8 37 18 37 23 0 11 -69 112 -116
169 -22 25 -95 93 -164 150 -69 58 -131 111 -137 120 -11 13 8 15 165 15 218
0 333 21 460 83 184 91 264 238 249 458 -10 153 -70 277 -190 389 -78 73 -224
183 -242 183 -18 0 -65 -61 -65 -85 0 -10 42 -61 93 -114 158 -164 218 -280
220 -422 2 -165 -91 -262 -295 -306 -93 -20 -279 -22 -333 -4 -113 38 -166
154 -81 175 36 9 75 -10 127 -60 l46 -46 37 60 c50 83 66 134 66 211 0 89 -29
150 -105 220 -64 57 -73 56 -74 -12 -1 -44 -30 -96 -56 -103 -38 -9 -58 -39
-51 -74 8 -44 -11 -28 -24 19 -9 36 -1 150 16 204 3 9 0 17 -6 17 -6 0 23 41
64 92 105 127 110 173 38 348 -21 52 -46 124 -56 160 -24 84 -46 128 -88 166
-33 32 -91 65 -138 79 -14 4 -74 30 -133 57 -99 46 -114 50 -165 46 -32 -3
-68 -2 -82 2 -14 3 -41 3 -60 -1z"/>
<path d="M730 2828 c-50 -26 -80 -74 -80 -127 l0 -34 23 20 c34 31 62 43 102
43 27 0 38 -5 46 -23 14 -32 -5 -77 -65 -150 -25 -31 -46 -60 -46 -65 0 -4 20
-27 44 -51 l44 -43 45 49 c98 104 129 162 130 242 1 74 -22 117 -76 142 -56
25 -113 24 -167 -3z"/>
<path d="M2275 2831 c-55 -28 -75 -65 -75 -138 0 -77 32 -141 114 -230 52 -56
66 -66 78 -56 8 7 0 -15 -16 -49 -29 -59 -31 -69 -31 -178 0 -132 20 -211 86
-345 30 -60 191 -318 215 -344 7 -8 83 32 104 54 l22 23 -90 134 c-157 235
-202 335 -202 449 0 150 105 279 228 279 109 0 182 -77 182 -192 l0 -52 21 20
c73 74 20 272 -89 332 -108 60 -254 30 -377 -77 -35 -31 -37 -32 -12 -5 15 17
27 34 27 39 0 5 -17 29 -38 54 -74 88 -94 138 -66 165 24 25 87 20 122 -9 43
-36 54 -33 47 13 -14 77 -68 124 -152 129 -44 3 -68 -1 -98 -16z"/>
<path d="M398 2558 c-49 -13 -126 -82 -149 -133 -21 -45 -26 -163 -9 -195 6
-11 20 -24 31 -30 19 -11 20 -9 14 23 -14 73 35 165 102 193 149 63 305 -74
304 -267 0 -116 -45 -220 -171 -400 -37 -53 -80 -117 -94 -142 l-27 -46 41
-30 c48 -35 80 -47 89 -34 167 242 222 339 268 470 24 69 27 93 27 208 0 112
-3 137 -21 176 -70 151 -256 247 -405 207z"/>
<path d="M255 1298 c-36 -108 -44 -251 -21 -352 58 -245 261 -387 536 -374
l80 3 5 -45 c10 -71 10 -72 52 -64 21 3 53 13 72 20 l33 14 -6 53 -7 54 43 12
c106 31 167 72 264 175 l94 101 -6 80 c-8 98 -34 189 -55 193 -9 1 -37 -6 -62
-17 -43 -18 -47 -23 -47 -54 0 -55 -28 -146 -60 -193 -32 -46 -91 -92 -152
-117 l-36 -15 -13 71 c-7 40 -15 75 -18 79 -4 5 -31 -16 -60 -46 -42 -42 -54
-62 -58 -95 l-6 -41 -46 1 c-25 1 -37 4 -26 6 11 3 43 34 70 70 100 130 270
263 427 333 43 19 77 39 75 44 -6 19 -54 47 -93 56 -21 5 -78 10 -126 10 -70
0 -88 -3 -88 -14 0 -8 -35 -41 -78 -73 l-78 -59 -18 23 c-70 93 -266 89 -318
-7 -22 -42 -23 -108 -2 -138 22 -31 34 -27 34 12 0 47 38 86 85 86 41 0 89
-22 104 -47 9 -16 14 -14 53 22 23 22 8 4 -33 -41 -69 -74 -151 -182 -165
-218 -4 -11 11 -20 58 -36 36 -12 48 -18 28 -15 -53 8 -153 58 -198 100 -93
84 -124 220 -83 369 12 43 20 80 19 81 -4 4 -140 75 -143 75 -1 0 -15 -37 -30
-82z"/>
<path d="M2429 1197 c-49 -14 -109 -52 -109 -69 0 -16 78 -88 95 -88 8 0 15 4
15 10 0 14 55 40 85 40 56 0 105 -47 105 -100 0 -25 9 -25 26 -2 20 26 17 112
-5 148 -34 56 -130 83 -212 61z"/>
<path d="M1223 590 c-23 -5 -96 -37 -162 -71 -98 -51 -131 -63 -179 -67 -79
-6 -129 17 -151 69 -15 35 -18 37 -74 43 -31 3 -69 9 -82 12 -24 6 -25 4 -25
-38 0 -112 79 -222 181 -252 112 -34 211 -13 349 74 101 63 177 100 207 100
24 0 44 29 61 91 10 36 9 37 -20 43 -36 7 -49 7 -105 -4z"/>
<path d="M1853 593 c-27 -5 -30 -36 -9 -87 12 -29 23 -37 68 -50 30 -8 103
-47 163 -86 117 -76 180 -100 260 -100 159 0 270 99 291 259 7 54 7 54 -17 47
-13 -3 -52 -9 -86 -13 -60 -6 -64 -8 -80 -42 -25 -50 -73 -73 -144 -69 -44 3
-86 18 -195 70 -133 64 -195 81 -251 71z"/>
</g>
</svg>
