<?xml version="1.0" standalone="no"?>
<!DOCTYPE svg PUBLIC "-//W3C//DTD SVG 20010904//EN"
 "http://www.w3.org/TR/2001/REC-SVG-20010904/DTD/svg10.dtd">
<svg version="1.0" xmlns="http://www.w3.org/2000/svg"
 width="512.000000pt" height="512.000000pt" viewBox="0 0 512.000000 512.000000"
 preserveAspectRatio="xMidYMid meet">
<metadata>
Created by potrace 1.15, written by Peter Selinger 2001-2017
</metadata>
<g transform="translate(0.000000,512.000000) scale(0.100000,-0.100000)">
<path d="M2398 5074 c-201 -48 -358 -217 -404 -434 -24 -113 -15 -307 20 -425
44 -149 113 -280 210 -400 59 -72 68 -124 35 -192 -26 -52 -20 -48 -203 -133
-213 -98 -375 -234 -437 -364 -26 -56 -29 -71 -29 -169 l0 -107 -77 38 c-43
22 -98 47 -123 56 -86 33 -120 77 -120 156 0 62 6 73 72 155 116 144 199 349
218 538 29 294 -77 529 -290 641 -87 46 -173 66 -285 66 -342 0 -565 -220
-582 -574 -12 -258 71 -484 268 -727 30 -37 38 -143 15 -188 -18 -33 -33 -42
-188 -106 -201 -82 -375 -229 -441 -373 -22 -46 -22 -54 -22 -647 0 -676 0
-679 75 -834 141 -291 421 -526 850 -714 163 -71 520 -187 577 -187 9 0 13 52
15 193 l3 193 32 64 c77 157 274 312 526 417 109 45 131 71 123 146 -4 37 -14
59 -44 95 -124 150 -209 339 -243 537 -19 109 -7 283 26 380 64 192 202 329
390 388 100 31 290 31 390 0 255 -80 409 -291 422 -580 13 -259 -75 -514 -250
-726 -36 -43 -39 -52 -40 -112 -2 -80 7 -90 123 -135 253 -97 462 -257 534
-409 31 -66 31 -67 34 -258 2 -106 7 -193 10 -193 16 0 204 53 292 82 643 210
1071 557 1183 957 20 73 21 100 25 654 2 402 0 595 -8 632 -32 153 -227 336
-459 431 -154 63 -169 72 -187 105 -23 45 -15 151 15 188 148 183 225 344 257
541 36 223 -13 440 -131 577 -48 56 -155 126 -235 154 -89 30 -258 37 -354 15
-205 -48 -356 -200 -413 -416 -22 -86 -22 -277 1 -382 37 -173 132 -363 233
-470 32 -33 36 -43 41 -106 4 -68 4 -70 -31 -109 -26 -28 -57 -48 -109 -68
-40 -15 -92 -38 -115 -51 -23 -13 -44 -24 -47 -24 -3 0 -6 43 -6 95 0 116 -20
176 -88 260 -92 115 -253 222 -442 296 -118 46 -145 66 -162 121 -19 65 2 130
72 218 73 91 151 244 186 365 35 121 44 317 20 427 -49 220 -200 380 -407 432
-80 20 -241 20 -321 0z"/>
</g>
</svg>
