<?xml version="1.0" standalone="no"?>
<!DOCTYPE svg PUBLIC "-//W3C//DTD SVG 20010904//EN"
 "http://www.w3.org/TR/2001/REC-SVG-20010904/DTD/svg10.dtd">
<svg version="1.0" xmlns="http://www.w3.org/2000/svg"
 width="752.000000pt" height="581.000000pt" viewBox="0 0 752.000000 581.000000"
 preserveAspectRatio="xMidYMid meet">
<g transform="translate(0.000000,581.000000) scale(0.100000,-0.100000)">
<path d="M260 5560 c-23 -43 69 -395 161 -615 173 -418 435 -794 823 -1181
257 -256 474 -437 771 -640 106 -73 131 -94 133 -116 5 -44 -22 -51 -138 -33
-303 45 -629 149 -914 292 -77 39 -92 43 -114 34 -22 -11 -24 -16 -18 -54 18
-108 133 -345 241 -495 252 -351 689 -680 1183 -890 46 -20 52 -26 52 -52 0
-37 -11 -43 -130 -69 -165 -35 -322 -51 -510 -51 -171 0 -180 -1 -190 -21 -14
-26 2 -52 74 -121 192 -183 586 -339 1015 -402 58 -9 108 -19 112 -23 3 -5 40
-108 80 -231 l74 -223 397 -229 c219 -127 403 -230 410 -230 7 0 191 103 408
229 l395 228 84 229 c46 126 88 232 94 235 5 4 37 10 71 14 225 25 568 125
759 221 149 75 347 235 347 281 0 39 -17 43 -200 43 -184 0 -325 14 -501 51
-128 26 -141 32 -137 67 3 24 26 38 223 137 226 113 432 241 595 371 127 101
306 285 398 409 126 170 268 463 260 538 -6 58 -25 57 -175 -15 -289 -139
-578 -230 -867 -273 -101 -15 -110 -15 -127 1 -36 33 -23 50 109 140 924 634
1537 1419 1731 2217 40 163 46 213 31 232 -24 28 -51 15 -163 -81 -709 -607
-1590 -1015 -2473 -1144 -153 -22 -164 -28 -164 -90 0 -54 -28 -342 -51 -525
-53 -429 -146 -863 -274 -1285 -59 -194 -153 -471 -165 -483 -4 -4 -50 17
-102 47 -52 31 -100 56 -106 56 -6 0 -53 -25 -106 -55 -52 -30 -99 -55 -104
-55 -6 0 -15 15 -22 33 -269 750 -415 1435 -476 2229 -4 51 -12 92 -19 98 -7
6 -74 20 -148 30 -659 97 -1298 340 -1902 723 -202 128 -450 313 -610 455 -73
65 -107 77 -125 42z"/>
</g>
</svg>
