<?xml version="1.0" standalone="no"?>
<!DOCTYPE svg PUBLIC "-//W3C//DTD SVG 20010904//EN"
 "http://www.w3.org/TR/2001/REC-SVG-20010904/DTD/svg10.dtd">
<svg version="1.0" xmlns="http://www.w3.org/2000/svg"
 width="402.000000pt" height="402.000000pt" viewBox="0 0 402.000000 402.000000"
 preserveAspectRatio="xMidYMid meet">
<metadata>
Created by potrace 1.15, written by Peter Selinger 2001-2017
</metadata>
<g transform="translate(0.000000,402.000000) scale(0.100000,-0.100000)">
<path d="M2960 3787 c-138 -139 -285 -412 -306 -566 -4 -32 -1 -58 9 -83 34
-80 160 -184 252 -207 40 -10 52 -9 91 8 99 44 254 228 274 325 20 96 -14 230
-100 394 -41 78 -107 164 -140 182 -15 8 -29 -2 -80 -53z"/>
<path d="M935 3798 c-45 -52 -104 -153 -138 -233 -63 -150 -74 -277 -32 -361
54 -109 196 -252 273 -275 73 -21 214 56 293 161 33 44 39 60 39 100 0 138
-140 416 -296 589 -68 75 -88 78 -139 19z"/>
<path d="M1965 3474 c-103 -57 -409 -338 -478 -441 l-29 -42 71 -128 c116
-212 223 -441 229 -491 l5 -45 -42 7 c-161 25 -503 201 -750 385 -192 144
-406 361 -498 506 -15 24 -32 44 -38 45 -23 1 -133 -131 -167 -201 -55 -111
-71 -185 -66 -309 l3 -105 127 -229 c124 -223 126 -228 97 -222 -103 20 -299
132 -364 208 -19 23 -38 39 -41 35 -12 -11 -16 -337 -7 -448 9 -96 13 -110 43
-155 80 -118 181 -214 291 -278 56 -32 167 -70 232 -80 l49 -7 -114 -77 c-193
-131 -304 -223 -292 -243 21 -35 277 -125 455 -161 86 -17 149 -23 256 -23
164 0 158 12 57 -121 -35 -46 -64 -88 -64 -93 0 -18 315 -141 361 -141 10 0
25 -10 32 -23 104 -172 180 -287 215 -325 l43 -47 -6 45 c-22 158 -23 190 -14
259 6 41 8 86 4 100 -3 14 -72 159 -152 322 l-146 297 -61 12 c-178 35 -324
104 -360 172 -18 33 -18 36 -1 71 20 43 107 126 173 164 l46 27 141 -148 141
-148 134 135 c284 284 471 378 632 317 122 -46 301 -182 463 -352 l97 -102 71
74 c168 177 211 220 217 220 4 0 38 -22 77 -49 75 -53 116 -96 141 -147 14
-30 13 -34 -7 -67 -41 -67 -147 -119 -318 -158 l-101 -23 -145 -295 c-163
-331 -168 -345 -155 -381 10 -25 4 -244 -8 -310 l-7 -35 27 25 c29 26 126 169
196 287 38 65 46 74 84 83 101 26 346 126 346 141 0 5 -27 43 -60 85 -33 42
-67 88 -74 102 l-14 27 152 1 c115 1 176 6 255 23 165 35 360 102 430 147 l23
16 -33 35 c-40 41 -135 113 -276 210 l-102 70 67 12 c183 34 372 164 491 340
42 61 43 66 53 174 10 113 6 416 -6 435 -3 5 -32 -15 -64 -47 -32 -31 -87 -73
-123 -94 -71 -41 -214 -100 -233 -95 -8 2 37 92 113 227 l124 225 5 100 c5
122 -11 195 -68 313 -38 78 -141 204 -165 202 -6 0 -37 -39 -70 -87 -83 -121
-312 -348 -461 -459 -257 -191 -591 -363 -754 -389 l-43 -7 5 47 c6 49 115
282 235 500 l65 118 -25 35 c-48 67 -193 217 -292 303 -177 152 -223 175 -280
144z"/>
<path d="M1922 1604 c-80 -21 -154 -59 -240 -123 -89 -67 -212 -193 -212 -219
0 -21 98 -222 108 -222 4 0 48 9 97 19 50 10 111 21 138 25 45 5 47 5 37 -14
-16 -29 -67 -65 -152 -105 l-77 -37 15 -40 c22 -62 66 -158 73 -158 3 0 29 8
56 19 136 51 326 54 470 7 94 -30 89 -34 135 86 34 87 36 98 16 98 -25 0 -151
69 -184 101 -57 56 -51 57 141 18 53 -11 101 -18 105 -15 17 10 102 194 102
218 0 18 -20 46 -67 95 -128 130 -261 216 -388 248 -72 18 -104 18 -173 -1z"/>
<path d="M1850 621 c-95 -31 -109 -41 -116 -79 -9 -47 -9 -102 -1 -135 l8 -28
29 21 c45 32 83 42 113 31 61 -23 88 -131 47 -184 l-20 -26 22 -15 c31 -22
135 -22 160 0 17 16 17 18 -3 51 -34 54 -13 130 46 169 20 13 30 14 59 4 19
-6 47 -20 61 -32 14 -11 29 -17 33 -13 9 9 9 133 -1 168 -20 73 -293 115 -437
68z"/>
</g>
</svg>
