<?xml version="1.0" standalone="no"?>
<!DOCTYPE svg PUBLIC "-//W3C//DTD SVG 20010904//EN"
 "http://www.w3.org/TR/2001/REC-SVG-20010904/DTD/svg10.dtd">
<svg version="1.0" xmlns="http://www.w3.org/2000/svg"
 width="386.000000pt" height="350.000000pt" viewBox="0 0 386.000000 350.000000"
 preserveAspectRatio="xMidYMid meet">
<metadata>
Created by potrace 1.15, written by Peter Selinger 2001-2017
</metadata>
<g transform="translate(0.000000,350.000000) scale(0.100000,-0.100000)">
<path d="M1925 3491 c-21 -34 -232 -1512 -305 -2128 -60 -519 -95 -1011 -77
-1085 4 -16 19 -30 38 -39 18 -7 74 -52 126 -101 106 -100 134 -117 203 -125
77 -9 129 16 234 115 50 46 110 94 133 105 42 21 43 22 45 76 9 256 -35 754
-133 1501 -81 615 -237 1670 -249 1683 -4 5 -11 4 -15 -2z"/>
<path d="M15 2883 c17 -65 21 -223 13 -443 -15 -365 -1 -556 48 -653 58 -115
152 -194 418 -352 465 -275 491 -335 463 -1080 -7 -180 -6 -223 5 -238 29 -39
160 -29 173 13 9 28 91 76 172 100 l71 21 6 72 c15 184 58 655 71 767 15 137
8 199 -34 310 -61 161 -228 283 -621 455 -324 142 -393 183 -428 257 -10 24
-34 99 -52 168 -75 291 -142 455 -236 573 -50 63 -81 76 -69 30z"/>
<path d="M3787 2859 c-51 -59 -124 -192 -161 -299 -15 -41 -47 -149 -71 -240
-24 -91 -50 -181 -58 -200 -33 -76 -105 -122 -382 -243 -229 -100 -334 -154
-441 -225 -159 -107 -220 -189 -259 -350 -18 -73 -18 -75 14 -395 17 -177 37
-397 43 -488 l12 -167 59 -16 c85 -24 152 -61 182 -100 30 -40 85 -54 145 -39
l35 9 0 405 c0 387 1 407 22 482 52 181 130 261 418 427 268 155 392 257 441
363 52 114 56 165 52 612 -1 226 1 434 5 463 6 34 5 52 -1 52 -6 0 -30 -23
-55 -51z"/>
</g>
</svg>
