<?xml version="1.0" standalone="no"?>
<!DOCTYPE svg PUBLIC "-//W3C//DTD SVG 20010904//EN"
 "http://www.w3.org/TR/2001/REC-SVG-20010904/DTD/svg10.dtd">
<svg version="1.0" xmlns="http://www.w3.org/2000/svg"
 width="402.000000pt" height="403.000000pt" viewBox="0 0 402.000000 403.000000"
 preserveAspectRatio="xMidYMid meet">
<metadata>
Created by potrace 1.15, written by Peter Selinger 2001-2017
</metadata>
<g transform="translate(0.000000,403.000000) scale(0.100000,-0.100000)">
<path d="M1717 4004 c-750 -113 -1378 -638 -1616 -1350 -70 -212 -92 -339 -98
-576 -4 -134 -1 -243 7 -305 127 -1040 1028 -1809 2070 -1770 425 16 816 157
1155 416 84 64 266 242 337 330 220 274 363 594 425 956 26 158 24 473 -6 639
-148 834 -761 1466 -1591 1641 -110 24 -153 27 -355 30 -168 3 -256 0 -328
-11z m428 -194 c237 -20 426 -70 633 -170 213 -103 362 -211 528 -381 245
-254 396 -541 471 -898 24 -113 27 -147 27 -341 1 -167 -3 -237 -18 -315 -135
-737 -690 -1308 -1420 -1461 -164 -34 -420 -43 -592 -20 -563 74 -1058 409
-1338 904 -352 622 -300 1395 132 1971 302 401 786 669 1282 710 137 12 162
12 295 1z"/>
<path d="M1726 3600 c-963 -175 -1554 -1161 -1251 -2087 279 -851 1191 -1310
2042 -1029 140 47 304 130 423 214 106 75 271 234 346 332 277 364 390 839
304 1281 -109 564 -519 1040 -1055 1224 -178 61 -274 77 -495 81 -172 3 -222
0 -314 -16z m552 -211 c546 -104 979 -532 1104 -1090 30 -136 33 -415 5 -551
-54 -269 -177 -503 -366 -700 -124 -130 -238 -215 -386 -288 -176 -87 -394
-155 -250 -77 107 57 147 83 237 156 221 177 382 441 449 731 30 128 36 350
14 481 -62 372 -265 688 -576 895 -216 144 -452 214 -719 214 -351 0 -651
-120 -908 -364 -54 -50 -88 -78 -78 -61 55 88 119 169 195 249 336 348 801
495 1279 405z m-279 -455 c390 -70 722 -370 845 -762 36 -115 33 -128 -13 -52
-145 239 -366 395 -641 452 -122 26 -295 21 -420 -11 -267 -69 -499 -258 -621
-506 -64 -131 -89 -231 -96 -377 -10 -219 41 -406 160 -583 77 -114 196 -225
317 -293 69 -40 46 -40 -72 -2 -255 82 -471 250 -609 474 -339 551 -132 1273
446 1561 231 115 445 145 704 99z m187 -574 c196 -49 368 -178 467 -348 142
-244 140 -523 -4 -770 -54 -92 -190 -220 -284 -269 -84 -43 -200 -83 -242 -83
-21 0 -16 7 36 45 143 108 230 288 231 475 0 326 -274 600 -600 600 -189 -1
-369 -89 -478 -236 -26 -35 -48 -60 -50 -55 -5 15 27 138 52 201 88 216 301
395 530 445 95 21 249 18 342 -5z m-230 -595 c76 -37 152 -114 190 -190 26
-55 29 -69 29 -165 0 -93 -3 -112 -27 -162 -37 -80 -107 -152 -187 -191 -62
-30 -72 -32 -176 -32 -106 0 -112 1 -172 34 -74 40 -140 107 -180 182 -26 50
-28 62 -28 169 0 107 2 119 28 168 53 100 139 175 240 208 26 9 76 13 133 11
76 -2 100 -7 150 -32z"/>
</g>
</svg>
