<?xml version="1.0" standalone="no"?>
<!DOCTYPE svg PUBLIC "-//W3C//DTD SVG 20010904//EN"
 "http://www.w3.org/TR/2001/REC-SVG-20010904/DTD/svg10.dtd">
<svg version="1.0" xmlns="http://www.w3.org/2000/svg"
 width="403.000000pt" height="403.000000pt" viewBox="0 0 403.000000 403.000000"
 preserveAspectRatio="xMidYMid meet">
<metadata>
Created by potrace 1.15, written by Peter Selinger 2001-2017
</metadata>
<g transform="translate(0.000000,403.000000) scale(0.100000,-0.100000)">
<path d="M1550 3390 c-272 -346 -496 -633 -498 -639 -3 -8 900 -631 915 -631
5 0 129 295 276 655 233 569 266 658 255 673 -22 31 -449 572 -451 572 -1 -1
-225 -284 -497 -630z"/>
<path d="M2856 3298 c-13 -29 -139 -291 -280 -582 -141 -291 -256 -532 -255
-535 0 -10 943 -736 955 -736 18 0 526 574 522 589 -4 19 -901 1315 -911 1315
-4 1 -18 -23 -31 -51z"/>
<path d="M473 2296 l-262 -294 457 -661 c251 -363 460 -661 463 -661 3 0 131
260 284 578 153 317 280 580 282 584 3 7 -928 735 -951 744 -6 2 -129 -128
-273 -290z"/>
<path d="M2002 1863 c-80 -189 -512 -1253 -512 -1262 0 -9 327 -432 436 -564
l23 -27 501 636 c275 350 500 638 498 639 -10 10 -905 618 -914 622 -6 2 -20
-18 -32 -44z"/>
</g>
</svg>
