<?xml version="1.0" standalone="no"?>
<!DOCTYPE svg PUBLIC "-//W3C//DTD SVG 20010904//EN"
 "http://www.w3.org/TR/2001/REC-SVG-20010904/DTD/svg10.dtd">
<svg version="1.0" xmlns="http://www.w3.org/2000/svg"
 width="398.000000pt" height="398.000000pt" viewBox="0 0 398.000000 398.000000"
 preserveAspectRatio="xMidYMid meet">
<metadata>
Created by potrace 1.15, written by Peter Selinger 2001-2017
</metadata>
<g transform="translate(0.000000,398.000000) scale(0.100000,-0.100000)">
<path d="M1759 3954 c-268 -48 -475 -198 -592 -429 -14 -28 -41 -98 -61 -155
-19 -58 -42 -125 -51 -150 -18 -48 -17 -62 18 -209 l21 -93 -35 -32 c-20 -17
-50 -43 -67 -58 -18 -14 -32 -33 -32 -41 0 -8 29 -57 63 -108 98 -145 92 -124
92 -314 0 -93 4 -176 9 -183 6 -11 19 -3 55 31 25 24 91 81 146 127 55 46 104
86 108 90 5 4 -1 23 -12 41 -32 52 -27 103 18 196 50 104 67 116 147 103 65
-11 172 -43 217 -66 58 -30 21 -97 -119 -215 -438 -369 -650 -563 -660 -604
-4 -15 28 -94 97 -241 192 -413 283 -628 310 -733 16 -63 4 -143 -47 -322 -19
-66 -34 -126 -34 -132 1 -19 136 -181 164 -196 20 -11 28 -12 41 -1 23 19 19
41 -30 167 -25 63 -45 125 -45 138 0 13 29 68 65 122 l66 97 -21 130 c-17 110
-26 138 -55 187 -29 48 -118 278 -269 696 l-26 73 121 80 120 81 57 -58 c32
-32 66 -64 76 -72 24 -18 17 -75 -29 -227 -19 -63 -35 -121 -35 -130 0 -9 52
-131 116 -271 63 -140 126 -283 139 -318 l24 -63 -54 -204 c-76 -281 -88 -343
-74 -371 7 -12 37 -50 68 -83 47 -52 59 -72 74 -132 21 -81 46 -112 70 -88 41
42 24 143 -44 257 -52 87 -51 114 11 279 112 296 112 297 -42 669 -44 107 -82
211 -85 230 -5 39 50 336 72 389 23 54 97 152 115 152 9 0 25 -9 35 -20 l18
-20 19 20 c10 11 27 20 36 20 15 0 81 -87 111 -146 12 -26 44 -163 66 -292 19
-111 23 -92 -85 -357 -110 -267 -124 -317 -110 -392 10 -59 54 -194 104 -326
36 -94 34 -125 -14 -205 -69 -114 -88 -227 -44 -259 26 -19 41 0 68 88 21 68
33 89 86 147 l62 67 -5 56 c-3 30 -33 161 -67 290 l-62 235 30 74 c16 41 77
180 136 308 58 128 109 244 112 257 3 14 -9 68 -31 136 -20 63 -39 139 -42
170 -5 52 -4 56 23 73 16 10 50 41 75 68 l45 51 121 -81 121 -81 -28 -78 c-16
-43 -72 -197 -125 -343 -54 -146 -116 -301 -139 -345 -36 -68 -45 -98 -60
-200 l-18 -120 66 -99 c36 -54 66 -107 66 -118 0 -10 -21 -71 -46 -134 -50
-126 -55 -177 -18 -182 22 -3 113 87 167 165 l28 41 -30 104 c-40 135 -61 239
-61 293 0 77 85 290 294 739 64 137 119 259 122 271 4 18 -8 38 -58 90 -77 83
-315 293 -536 473 -220 180 -255 234 -177 278 41 24 156 57 233 68 39 6 46 4
72 -24 34 -37 90 -167 90 -211 0 -17 -10 -47 -22 -67 l-22 -35 50 -41 c27 -23
97 -82 156 -133 85 -74 108 -88 113 -75 12 33 16 139 7 222 -5 47 -5 98 -1
114 5 16 43 80 86 143 87 130 87 124 5 188 -28 22 -54 50 -58 63 -3 12 3 60
15 107 30 122 28 157 -25 308 -60 172 -106 265 -174 346 -127 151 -286 239
-499 276 -105 19 -358 18 -462 -1z m291 -1500 c51 -46 115 -172 106 -208 -9
-35 -48 -58 -113 -67 -111 -15 -205 19 -211 76 -6 50 67 175 128 218 34 24 45
22 90 -19z"/>
</g>
</svg>
