<?xml version="1.0" standalone="no"?>
<!DOCTYPE svg PUBLIC "-//W3C//DTD SVG 20010904//EN"
 "http://www.w3.org/TR/2001/REC-SVG-20010904/DTD/svg10.dtd">
<svg version="1.0" xmlns="http://www.w3.org/2000/svg"
 width="403.000000pt" height="403.000000pt" viewBox="0 0 403.000000 403.000000"
 preserveAspectRatio="xMidYMid meet">
<metadata>
Created by potrace 1.15, written by Peter Selinger 2001-2017
</metadata>
<g transform="translate(0.000000,403.000000) scale(0.100000,-0.100000)">
<path d="M1790 3955 c-330 -50 -640 -179 -895 -371 -123 -93 -126 -97 -35 -55
452 206 977 199 1426 -20 464 -226 793 -651 906 -1172 19 -88 22 -132 22 -327
0 -195 -3 -239 -22 -327 -142 -654 -628 -1154 -1262 -1299 -297 -68 -612 -53
-898 41 -56 19 -137 50 -180 70 -82 37 -81 36 43 -59 196 -150 468 -276 724
-337 206 -50 499 -63 712 -33 1217 169 1983 1398 1598 2559 -223 672 -777
1163 -1479 1310 -108 23 -155 27 -345 30 -158 3 -247 0 -315 -10z"/>
<path d="M1135 3234 c-141 -19 -192 -30 -275 -56 -512 -163 -852 -629 -852
-1168 0 -528 322 -981 824 -1158 247 -87 534 -89 785 -6 335 112 612 367 745
687 300 724 -137 1536 -905 1682 -83 16 -267 27 -322 19z"/>
</g>
</svg>
