<?xml version="1.0" standalone="no"?>
<!DOCTYPE svg PUBLIC "-//W3C//DTD SVG 20010904//EN"
 "http://www.w3.org/TR/2001/REC-SVG-20010904/DTD/svg10.dtd">
<svg version="1.0" xmlns="http://www.w3.org/2000/svg"
 width="401.000000pt" height="401.000000pt" viewBox="0 0 401.000000 401.000000"
 preserveAspectRatio="xMidYMid meet">
<metadata>
Created by potrace 1.15, written by Peter Selinger 2001-2017
</metadata>
<g transform="translate(0.000000,401.000000) scale(0.100000,-0.100000)">
<path d="M2037 3015 c-527 -542 -960 -992 -963 -1000 -5 -13 60 -15 550 -15
473 0 556 -2 556 -14 0 -8 -216 -453 -480 -989 -264 -536 -480 -977 -480 -981
0 -3 6 -6 13 -6 10 0 743 775 2206 2333 37 39 60 71 55 76 -5 5 -274 26 -597
47 -324 21 -593 41 -598 45 -6 3 142 311 355 738 201 402 366 735 366 741 0 5
-6 10 -12 10 -7 -1 -444 -444 -971 -985z"/>
<path d="M819 2328 c-284 -953 -406 -1374 -401 -1380 4 -4 103 9 220 29 116
20 214 34 218 31 3 -4 43 -186 90 -405 46 -219 87 -410 90 -426 8 -39 34 -35
34 6 1 17 18 286 39 597 21 311 35 569 31 574 -5 4 -93 -5 -197 -22 -105 -17
-192 -26 -197 -21 -6 5 15 215 53 526 34 285 63 527 64 537 1 11 -3 21 -10 23
-7 3 -20 -24 -34 -69z"/>
<path d="M2983 1238 c-315 -150 -573 -277 -573 -284 0 -6 56 -53 125 -105 68
-52 124 -101 124 -109 0 -9 -215 -155 -529 -358 -312 -202 -530 -350 -530
-359 0 -8 4 -13 9 -11 69 24 1641 714 1641 720 0 4 -65 51 -145 105 -87 57
-145 103 -145 112 0 9 140 133 310 276 170 143 311 266 314 273 3 7 -2 12 -12
12 -9 0 -275 -123 -589 -272z"/>
</g>
</svg>
