<?xml version="1.0" standalone="no"?>
<!DOCTYPE svg PUBLIC "-//W3C//DTD SVG 20010904//EN"
 "http://www.w3.org/TR/2001/REC-SVG-20010904/DTD/svg10.dtd">
<svg version="1.0" xmlns="http://www.w3.org/2000/svg"
 width="403.000000pt" height="403.000000pt" viewBox="0 0 403.000000 403.000000"
 preserveAspectRatio="xMidYMid meet">
<metadata>
Created by potrace 1.15, written by Peter Selinger 2001-2017
</metadata>
<g transform="translate(0.000000,403.000000) scale(0.100000,-0.100000)">
<path d="M1990 4012 c-49 -31 -134 -120 -251 -264 -66 -82 -122 -148 -125
-148 -2 0 -81 38 -175 85 -175 88 -324 145 -377 145 -24 0 -40 -11 -76 -51
-56 -63 -139 -186 -196 -291 -23 -43 -44 -78 -46 -78 -2 0 -41 18 -85 41 -185
93 -356 147 -404 129 -35 -13 -56 -119 -56 -287 0 -74 3 -149 6 -167 4 -21 -1
-54 -15 -95 -51 -154 -44 -510 21 -1044 14 -112 22 -93 -94 -220 l-68 -75 111
-199 c61 -110 123 -212 138 -226 49 -47 242 -156 537 -304 264 -132 292 -144
318 -134 41 16 46 42 26 150 -22 118 -23 190 -5 261 8 30 62 160 120 288 112
247 120 278 92 347 -8 18 -26 41 -40 50 -14 10 -136 37 -288 66 -145 26 -273
51 -286 54 -22 5 -22 8 -22 166 0 123 3 167 15 189 16 31 61 60 93 60 23 0
805 -196 845 -212 36 -14 57 -55 57 -110 0 -23 -29 -195 -66 -382 -69 -362
-71 -387 -30 -448 42 -64 61 -68 353 -68 161 0 273 4 290 11 45 17 73 49 89
105 15 52 14 56 -55 417 -44 224 -69 376 -65 394 3 17 16 42 27 56 20 23 68
38 440 132 230 58 427 105 438 105 36 0 80 -31 95 -65 10 -25 14 -78 14 -189
0 -153 0 -156 -22 -161 -13 -3 -141 -27 -286 -54 -150 -28 -274 -57 -289 -66
-13 -9 -31 -32 -39 -50 -29 -70 -20 -101 96 -359 137 -303 143 -333 114 -509
-23 -135 -20 -161 23 -178 25 -9 52 1 273 111 293 145 518 272 571 320 26 23
74 100 144 226 58 105 105 197 105 204 0 7 -38 55 -85 107 -47 52 -84 97 -81
101 2 4 17 115 32 247 24 206 28 280 28 520 1 249 -1 287 -18 340 -16 50 -19
93 -20 265 -2 225 -15 302 -56 313 -50 13 -189 -33 -411 -136 l-77 -36 -67
116 c-116 202 -199 303 -248 303 -54 0 -218 -63 -384 -147 -90 -46 -169 -81
-174 -78 -5 4 -62 72 -128 153 -124 153 -198 229 -247 255 -26 13 -32 13 -54
-1z"/>
<path d="M1548 821 c-76 -24 -114 -50 -236 -154 l-102 -88 2 -217 3 -216 103
-33 c467 -147 923 -146 1415 4 l87 26 0 222 0 222 -92 79 c-124 107 -148 122
-226 150 -66 23 -71 24 -482 23 -373 0 -421 -2 -472 -18z"/>
</g>
</svg>
