<?xml version="1.0" standalone="no"?>
<!DOCTYPE svg PUBLIC "-//W3C//DTD SVG 20010904//EN"
 "http://www.w3.org/TR/2001/REC-SVG-20010904/DTD/svg10.dtd">
<svg version="1.0" xmlns="http://www.w3.org/2000/svg"
 width="392.000000pt" height="392.000000pt" viewBox="0 0 392.000000 392.000000"
 preserveAspectRatio="xMidYMid meet">
<metadata>
Created by potrace 1.15, written by Peter Selinger 2001-2017
</metadata>
<g transform="translate(0.000000,392.000000) scale(0.100000,-0.100000)">
<path d="M1730 3662 c-30 -9 -75 -16 -100 -15 -25 1 -90 2 -145 3 -90 2 -117
-2 -280 -44 -220 -56 -286 -87 -357 -165 -32 -35 -71 -66 -100 -79 -127 -55
-285 -185 -355 -290 -42 -64 -82 -172 -83 -223 0 -27 -8 -43 -36 -70 -93 -89
-163 -245 -150 -336 5 -41 3 -49 -29 -87 -99 -121 -119 -270 -49 -363 20 -26
24 -43 24 -101 0 -105 22 -166 84 -227 52 -52 138 -95 191 -95 38 0 37 -14 -6
-56 -106 -104 -78 -254 76 -409 185 -186 519 -335 752 -335 l56 0 -6 -122 c-6
-132 -39 -283 -76 -357 -12 -22 -18 -41 -15 -41 16 0 169 119 236 183 96 92
151 164 195 252 56 110 84 202 90 293 6 81 6 82 33 82 15 0 55 14 89 31 67 34
110 86 133 161 l11 37 54 -31 c59 -33 146 -58 203 -58 19 1 60 9 90 20 54 18
55 18 115 -2 107 -36 276 -13 370 51 113 76 176 282 121 389 l-15 30 57 0 c31
0 75 6 96 14 36 13 43 13 98 -9 176 -71 358 -70 508 5 113 56 231 204 246 308
3 21 18 73 32 114 65 191 0 488 -138 634 -28 30 -64 59 -79 66 -20 8 -31 21
-35 41 -7 39 -131 162 -223 223 -81 53 -170 92 -232 102 -32 5 -45 14 -61 39
-57 93 -208 192 -308 203 -37 4 -59 14 -102 50 -30 25 -91 62 -135 82 -121 57
-200 74 -350 76 -101 1 -146 7 -199 23 -84 26 -215 27 -296 3z"/>
</g>
</svg>
