<?xml version="1.0" standalone="no"?>
<!DOCTYPE svg PUBLIC "-//W3C//DTD SVG 20010904//EN"
 "http://www.w3.org/TR/2001/REC-SVG-20010904/DTD/svg10.dtd">
<svg version="1.0" xmlns="http://www.w3.org/2000/svg"
 width="391.000000pt" height="391.000000pt" viewBox="0 0 391.000000 391.000000"
 preserveAspectRatio="xMidYMid meet">
<metadata>
Created by potrace 1.15, written by Peter Selinger 2001-2017
</metadata>
<g transform="translate(0.000000,391.000000) scale(0.100000,-0.100000)">
<path d="M2170 3880 c-508 -32 -908 -164 -1177 -389 -57 -47 -63 -55 -63 -89
0 -20 79 -505 174 -1077 96 -572 173 -1041 172 -1042 0 -1 -26 6 -56 15 -40
11 -97 15 -205 15 -129 0 -163 -3 -246 -25 -310 -83 -566 -272 -688 -507 -56
-108 -74 -185 -69 -301 3 -81 8 -105 36 -163 62 -133 185 -224 361 -268 74
-19 104 -21 235 -16 126 4 166 9 241 31 194 59 352 147 485 272 158 150 250
334 250 502 0 50 -267 1596 -296 1718 -5 18 6 30 53 64 126 91 341 176 568
225 423 92 1063 96 1352 10 43 -13 52 -20 57 -43 13 -62 189 -1473 184 -1477
-2 -3 -42 3 -89 11 -161 31 -380 2 -566 -75 -210 -87 -396 -240 -502 -415
-113 -187 -121 -400 -21 -555 144 -222 500 -297 861 -180 299 96 566 334 650
579 46 133 46 133 -130 1555 -89 715 -164 1310 -166 1323 -13 56 -223 165
-426 220 -100 28 -273 59 -389 71 -138 15 -445 21 -590 11z"/>
</g>
</svg>
