<?xml version="1.0" standalone="no"?>
<!DOCTYPE svg PUBLIC "-//W3C//DTD SVG 20010904//EN"
 "http://www.w3.org/TR/2001/REC-SVG-20010904/DTD/svg10.dtd">
<svg version="1.0" xmlns="http://www.w3.org/2000/svg"
 width="400.000000pt" height="400.000000pt" viewBox="0 0 400.000000 400.000000"
 preserveAspectRatio="xMidYMid meet">
<metadata>
Created by potrace 1.15, written by Peter Selinger 2001-2017
</metadata>
<g transform="translate(0.000000,400.000000) scale(0.100000,-0.100000)">
<path d="M3147 2976 c-120 -35 -221 -66 -224 -70 -3 -3 18 -91 47 -195 l53
-189 66 19 c36 10 131 38 210 61 129 37 145 40 155 26 6 -9 41 -118 76 -242
55 -197 62 -228 49 -240 -8 -8 -98 -38 -201 -67 -104 -29 -193 -56 -199 -60
-9 -5 3 -61 41 -196 29 -103 53 -189 54 -190 6 -8 473 139 511 161 143 84 230
264 205 423 -14 87 -149 541 -177 596 -70 138 -220 228 -381 227 -52 -1 -117
-15 -285 -64z"/>
<path d="M1402 2478 c-1205 -344 -1336 -384 -1362 -410 -58 -58 -67 -12 152
-795 8 -29 28 -41 292 -175 157 -78 287 -140 291 -137 3 4 -21 96 -53 205 -33
110 -58 200 -57 202 2 2 134 -62 294 -143 278 -138 291 -144 285 -118 -4 16
-31 111 -60 213 -28 102 -50 187 -49 189 2 2 28 -10 57 -27 29 -16 160 -84
290 -151 l237 -121 -10 32 c-52 178 -110 401 -106 405 3 2 132 -64 287 -147
155 -83 284 -150 286 -147 2 2 -21 94 -52 206 -31 111 -54 204 -51 207 3 3
132 -60 287 -141 155 -81 283 -145 285 -143 1 2 -23 95 -55 208 -31 113 -54
206 -51 207 3 2 132 -62 286 -141 154 -79 281 -142 283 -141 3 2 -223 807
-334 1193 -9 28 -21 52 -27 51 -7 0 -612 -172 -1345 -381z"/>
</g>
</svg>
