<?xml version="1.0" standalone="no"?>
<!DOCTYPE svg PUBLIC "-//W3C//DTD SVG 20010904//EN"
 "http://www.w3.org/TR/2001/REC-SVG-20010904/DTD/svg10.dtd">
<svg version="1.0" xmlns="http://www.w3.org/2000/svg"
 width="397.000000pt" height="397.000000pt" viewBox="0 0 397.000000 397.000000"
 preserveAspectRatio="xMidYMid meet">
<metadata>
Created by potrace 1.15, written by Peter Selinger 2001-2017
</metadata>
<g transform="translate(0.000000,397.000000) scale(0.100000,-0.100000)">
<path d="M1734 3903 c-233 -364 -1156 -1808 -1215 -1901 -51 -80 -76 -129 -72
-140 3 -9 55 -122 115 -251 59 -128 108 -242 108 -251 0 -10 -18 -69 -41 -132
-23 -62 -49 -136 -59 -165 l-19 -52 58 30 c32 16 62 29 67 29 5 0 148 354 319
786 171 432 313 788 317 790 3 2 -42 -142 -102 -321 -60 -179 -106 -325 -104
-325 3 0 116 94 252 209 l247 209 98 763 c54 420 98 767 97 772 0 4 -7 7 -15
7 -8 0 -31 -26 -51 -57z"/>
<path d="M2058 2734 c-513 -433 -937 -793 -941 -800 -4 -8 9 -137 29 -288 l38
-275 -129 -170 -128 -170 -77 6 c-156 12 -312 -67 -387 -194 -36 -61 -63 -156
-63 -218 0 -96 53 -227 117 -287 l28 -27 1 102 c2 241 36 387 88 371 12 -4 26
-11 33 -16 8 -6 26 1 55 22 24 18 58 38 75 45 18 8 33 20 33 28 0 21 216 22
293 2 32 -8 59 -15 60 -15 1 0 56 72 122 160 103 136 125 161 158 171 20 7 37
13 37 14 0 1 7 69 15 150 9 81 14 149 12 151 -2 2 -97 -127 -211 -286 l-207
-289 -43 32 c-42 31 -43 33 -27 54 37 51 1126 1400 1129 1398 1 -1 -107 -155
-241 -342 l-244 -341 191 93 c105 50 258 126 340 167 l149 74 328 718 c181
395 329 724 329 732 0 8 -6 14 -14 14 -8 0 -435 -354 -948 -786z"/>
<path d="M2704 2171 c-765 -381 -1104 -554 -1108 -567 -3 -11 -17 -131 -31
-269 -14 -137 -28 -258 -31 -267 -3 -10 -78 -77 -166 -149 l-161 -132 -72 23
c-59 18 -88 22 -158 18 -73 -4 -96 -10 -160 -41 -137 -68 -217 -190 -225 -342
-20 -380 418 -584 693 -324 109 103 158 268 119 401 -3 11 40 52 153 145 87
71 164 132 171 137 7 4 124 -5 262 -19 137 -14 265 -25 284 -23 32 3 71 49
791 962 417 528 758 966 759 974 1 8 -3 16 -9 18 -5 2 -506 -243 -1111 -545z
m26 -354 c-8 -8 -320 -276 -693 -596 l-678 -583 -34 39 c-19 21 -34 40 -34 43
0 6 1440 1110 1448 1110 3 0 -1 -6 -9 -13z m-1690 -1143 l32 -7 -4 -62 c-4
-73 -41 -141 -97 -184 l-35 -26 8 25 c13 45 18 164 8 207 -8 36 -7 43 7 46 26
7 46 7 81 1z m216 -211 c29 -192 -143 -343 -329 -289 -31 9 -59 20 -62 26 -3
5 14 14 37 20 148 36 280 160 312 295 7 28 8 29 21 11 8 -10 17 -39 21 -63z"/>
<path d="M1056 1860 c-13 -31 -256 -764 -253 -766 1 -1 24 -4 52 -5 56 -4 56
-4 97 105 20 53 29 63 72 85 28 15 62 44 78 67 l29 40 -34 245 c-19 134 -37
237 -41 229z"/>
<path d="M397 926 c-82 -34 -133 -72 -179 -132 -131 -174 -108 -409 54 -559
76 -70 144 -97 267 -103 52 -2 92 -1 90 4 -31 71 -104 141 -171 163 -92 30
-168 139 -168 241 0 54 34 149 59 164 6 4 11 15 11 24 0 26 63 152 94 190 33
39 22 40 -57 8z"/>
</g>
</svg>
