<?xml version="1.0" standalone="no"?>
<!DOCTYPE svg PUBLIC "-//W3C//DTD SVG 20010904//EN"
 "http://www.w3.org/TR/2001/REC-SVG-20010904/DTD/svg10.dtd">
<svg version="1.0" xmlns="http://www.w3.org/2000/svg"
 width="402.000000pt" height="403.000000pt" viewBox="0 0 402.000000 403.000000"
 preserveAspectRatio="xMidYMid meet">
<metadata>
Created by potrace 1.15, written by Peter Selinger 2001-2017
</metadata>
<g transform="translate(0.000000,403.000000) scale(0.100000,-0.100000)">
<path d="M2541 3995 c0 -5 4 -28 9 -50 5 -22 14 -98 20 -169 33 -380 -73 -785
-289 -1108 -94 -141 -95 -141 -116 -76 -30 92 -131 290 -203 399 -188 281
-447 516 -767 697 -80 45 -218 112 -205 99 3 -3 33 -26 68 -51 338 -249 594
-657 682 -1084 23 -117 25 -146 8 -139 -271 123 -540 185 -834 194 -197 6
-346 -6 -514 -43 -172 -38 -424 -125 -320 -110 163 22 305 28 426 18 249 -22
441 -75 659 -183 124 -61 315 -183 315 -201 0 -3 -24 -14 -52 -23 -85 -28
-286 -128 -383 -192 -298 -197 -569 -501 -738 -828 -47 -92 -77 -155 -74 -155
2 0 24 28 47 63 64 91 290 312 400 389 203 144 487 264 717 304 57 9 105 15
108 13 2 -3 -14 -48 -35 -101 -53 -129 -103 -304 -131 -463 -20 -110 -23 -164
-23 -350 0 -244 18 -385 74 -575 32 -105 81 -243 85 -238 2 2 -1 25 -6 52 -19
105 -28 297 -18 423 18 233 74 443 173 647 54 110 159 277 195 310 17 16 19
13 50 -67 148 -393 463 -759 869 -1010 93 -58 272 -151 278 -145 1 2 -27 26
-64 53 -269 199 -504 529 -616 867 -35 106 -84 333 -74 344 3 3 34 -7 69 -22
430 -182 914 -221 1352 -110 130 33 312 94 304 102 -2 3 -28 -1 -58 -8 -36 -9
-133 -13 -289 -13 -206 1 -248 4 -340 23 -231 50 -460 146 -646 271 -50 33
-96 66 -102 74 -9 11 11 23 108 62 438 176 830 551 1066 1018 36 73 62 128 57
122 -5 -5 -32 -39 -59 -75 -254 -338 -666 -592 -1088 -671 -64 -12 -118 -20
-121 -17 -3 2 14 49 36 104 54 132 102 301 130 459 20 109 23 165 24 350 0
248 -13 353 -70 559 -31 112 -93 284 -94 261z m-520 -1403 c79 -112 138 -299
125 -400 -6 -48 -11 -49 74 9 98 65 152 139 191 259 10 31 18 45 18 32 1 -44
-31 -178 -59 -244 -31 -74 -105 -185 -146 -217 l-25 -20 38 -8 c21 -4 81 -8
133 -7 101 0 178 18 265 60 l50 24 -41 -37 c-106 -97 -241 -152 -392 -162
l-102 -6 44 -66 c70 -104 145 -160 266 -200 l55 -18 -55 6 c-142 15 -310 88
-398 172 l-52 50 -7 -27 c-4 -15 -8 -74 -8 -132 1 -112 16 -182 61 -275 l24
-50 -39 44 c-100 113 -162 268 -164 413 -1 88 -1 88 -22 69 -11 -10 -37 -28
-57 -40 -49 -29 -131 -120 -157 -173 -11 -24 -27 -68 -36 -98 l-15 -55 5 60
c13 143 79 300 165 397 32 36 46 59 39 63 -22 14 -177 17 -245 6 -38 -7 -96
-24 -129 -37 -33 -14 -67 -28 -75 -31 -38 -15 112 93 171 122 93 47 171 68
266 69 46 0 83 2 83 4 0 14 -87 126 -127 164 -57 52 -109 82 -186 103 l-52 15
63 -5 c134 -13 287 -78 385 -166 31 -27 58 -45 62 -39 3 5 9 47 12 93 7 99 -8
196 -43 281 -14 34 -28 68 -31 76 -6 18 26 -19 68 -78z"/>
</g>
</svg>
