<?xml version="1.0" standalone="no"?>
<!DOCTYPE svg PUBLIC "-//W3C//DTD SVG 20010904//EN"
 "http://www.w3.org/TR/2001/REC-SVG-20010904/DTD/svg10.dtd">
<svg version="1.0" xmlns="http://www.w3.org/2000/svg"
 width="403.000000pt" height="403.000000pt" viewBox="0 0 403.000000 403.000000"
 preserveAspectRatio="xMidYMid meet">
<metadata>
Created by potrace 1.15, written by Peter Selinger 2001-2017
</metadata>
<g transform="translate(0.000000,403.000000) scale(0.100000,-0.100000)">
<path d="M1861 3627 c-84 -210 -157 -386 -162 -391 -4 -5 -157 109 -341 252
-183 143 -335 258 -337 256 -1 -1 23 -190 55 -418 31 -229 55 -418 52 -421 -3
-3 -194 21 -424 53 -230 33 -420 59 -421 58 -1 -1 117 -154 263 -340 l264
-339 -112 -47 c-62 -25 -240 -97 -395 -160 -156 -63 -279 -117 -275 -121 4 -4
176 -76 382 -159 206 -84 380 -155 387 -159 8 -4 -81 -125 -248 -339 -143
-184 -258 -336 -256 -338 3 -3 190 21 416 52 226 32 414 54 418 51 3 -4 -20
-192 -51 -418 -32 -226 -55 -413 -53 -416 3 -2 155 113 338 256 217 169 336
256 340 248 4 -7 75 -181 159 -387 83 -206 155 -378 159 -382 4 -4 63 131 131
300 68 169 140 346 160 395 l37 87 339 -264 c186 -146 339 -264 340 -263 1 1
-25 190 -58 421 -32 230 -56 421 -53 424 3 3 192 -20 421 -52 228 -32 417 -56
419 -54 1 1 -114 153 -257 335 -143 183 -257 336 -255 340 3 5 179 78 391 163
212 85 386 158 386 161 0 4 -175 77 -390 164 -214 87 -390 160 -390 164 0 3
117 156 260 340 143 183 260 334 260 336 0 1 -10 1 -22 -1 -126 -21 -821 -114
-825 -111 -3 4 93 718 110 825 3 12 3 22 2 22 -2 0 -153 -117 -337 -260 -183
-143 -336 -260 -339 -260 -4 0 -77 176 -164 390 -87 215 -160 390 -164 390 -3
0 -75 -172 -160 -383z m405 -652 c352 -89 627 -365 720 -721 33 -125 37 -322
10 -448 -79 -364 -359 -658 -723 -758 -65 -18 -106 -22 -248 -22 -203 -1 -281
16 -440 94 -197 97 -358 258 -455 455 -78 159 -95 237 -94 440 1 202 16 274
93 430 151 307 430 509 766 554 101 14 263 3 371 -24z"/>
<path d="M1928 2630 c-71 -13 -167 -47 -223 -79 -118 -68 -225 -197 -272 -331
-35 -99 -43 -255 -19 -350 60 -237 229 -406 466 -466 95 -24 251 -16 350 19
358 126 519 540 342 882 -73 141 -234 269 -389 309 -77 20 -194 28 -255 16z"/>
</g>
</svg>
