<?xml version="1.0" standalone="no"?>
<!DOCTYPE svg PUBLIC "-//W3C//DTD SVG 20010904//EN"
 "http://www.w3.org/TR/2001/REC-SVG-20010904/DTD/svg10.dtd">
<svg version="1.0" xmlns="http://www.w3.org/2000/svg"
 width="401.000000pt" height="401.000000pt" viewBox="0 0 401.000000 401.000000"
 preserveAspectRatio="xMidYMid meet">
<metadata>
Created by potrace 1.15, written by Peter Selinger 2001-2017
</metadata>
<g transform="translate(0.000000,401.000000) scale(0.100000,-0.100000)">
<path d="M2236 3987 c-10 -7 -66 -116 -125 -243 l-107 -229 -110 -7 c-60 -4
-128 -11 -152 -16 l-43 -10 -44 56 c-24 32 -95 125 -157 207 -150 199 -118
198 -439 25 -231 -125 -299 -171 -299 -205 0 -8 38 -120 85 -249 47 -128 85
-237 85 -241 0 -4 -25 -34 -55 -67 -31 -33 -74 -87 -98 -119 -32 -46 -46 -59
-62 -56 -86 20 -477 69 -499 63 -37 -9 -49 -38 -142 -353 -69 -236 -76 -265
-65 -291 11 -26 42 -43 246 -139 l234 -108 1 -50 c1 -48 14 -167 26 -231 6
-31 2 -34 -200 -184 -212 -157 -226 -171 -212 -226 8 -30 261 -500 283 -526
32 -37 58 -32 303 57 l238 87 94 -79 c52 -43 107 -87 123 -98 l28 -21 -37
-252 c-39 -267 -39 -277 7 -306 12 -8 145 -51 296 -96 269 -80 304 -86 337
-59 6 5 60 112 119 239 l108 230 51 0 c51 1 177 15 228 26 25 5 36 -7 164
-178 171 -228 180 -238 218 -238 35 0 503 246 549 288 17 16 27 36 27 53 0 15
-38 132 -85 260 l-85 232 59 62 c32 35 76 88 97 119 22 31 45 56 52 56 7 0
118 -16 248 -35 129 -19 247 -32 260 -29 14 4 32 17 40 29 20 31 174 551 174
590 0 20 -8 39 -22 52 -13 11 -123 67 -245 123 l-223 103 -1 76 c0 42 -6 111
-13 154 l-13 78 204 151 c205 151 230 177 217 222 -12 40 -269 511 -291 534
-12 12 -33 22 -47 22 -14 0 -130 -38 -257 -84 l-231 -84 -93 76 c-51 43 -106
88 -123 102 l-31 25 35 230 c19 127 33 245 32 264 -2 23 -11 40 -28 52 -29 22
-546 179 -588 179 -15 0 -36 -6 -46 -13z m-41 -732 c143 -23 231 -51 361 -115
256 -124 454 -321 583 -579 94 -187 126 -332 126 -571 -1 -155 -4 -187 -27
-280 -124 -495 -507 -858 -1006 -957 -118 -23 -357 -22 -467 1 -260 56 -480
174 -652 348 -104 106 -122 128 -186 231 -314 500 -238 1150 183 1568 182 180
432 310 670 349 41 6 82 13 90 15 46 9 248 3 325 -10z"/>
<path d="M1830 3059 c-241 -42 -488 -181 -640 -360 -322 -381 -343 -935 -49
-1329 157 -211 364 -347 627 -412 103 -26 329 -31 427 -10 450 97 764 409 857
852 28 134 21 344 -16 478 -85 307 -298 560 -582 693 -138 65 -254 91 -424 95
-80 1 -170 -1 -200 -7z m355 -363 c116 -31 222 -93 316 -186 96 -95 147 -176
187 -298 33 -100 37 -289 9 -392 -53 -195 -186 -359 -368 -455 -181 -95 -427
-103 -616 -20 -172 76 -319 237 -388 425 -37 98 -46 286 -21 395 66 282 306
501 601 549 54 8 219 -2 280 -18z"/>
</g>
</svg>
