<?xml version="1.0" standalone="no"?>
<!DOCTYPE svg PUBLIC "-//W3C//DTD SVG 20010904//EN"
 "http://www.w3.org/TR/2001/REC-SVG-20010904/DTD/svg10.dtd">
<svg version="1.0" xmlns="http://www.w3.org/2000/svg"
 width="400.000000pt" height="400.000000pt" viewBox="0 0 400.000000 400.000000"
 preserveAspectRatio="xMidYMid meet">
<metadata>
Created by potrace 1.15, written by Peter Selinger 2001-2017
</metadata>
<g transform="translate(0.000000,400.000000) scale(0.100000,-0.100000)">
<path d="M1990 3982 c0 -4 -61 -402 -135 -885 -74 -482 -135 -883 -135 -892 0
-12 16 -15 84 -15 84 0 84 0 90 28 3 15 26 162 52 327 25 165 48 302 50 304 2
2 6 2 9 0 2 -3 25 -140 50 -305 25 -164 48 -311 51 -326 6 -28 6 -28 90 -28
74 0 84 2 84 18 0 10 -61 412 -135 895 -74 482 -135 879 -135 882 0 3 -4 5
-10 5 -5 0 -10 -4 -10 -8z"/>
<path d="M1266 3719 c-3 -8 -64 -401 -136 -874 -72 -473 -133 -872 -136 -887
l-6 -28 89 0 89 0 49 325 c28 179 53 325 57 325 4 0 10 -10 13 -22 6 -26 95
-607 95 -620 0 -8 163 -12 171 -3 6 6 -266 1784 -274 1792 -4 3 -9 0 -11 -8z"/>
<path d="M2716 3703 c-13 -63 -266 -1725 -266 -1748 0 -25 1 -25 85 -25 47 0
85 3 85 8 1 33 98 633 103 639 4 3 9 4 10 2 2 -2 26 -148 53 -324 l49 -320 89
-3 89 -3 -6 28 c-3 15 -65 417 -137 893 -73 476 -136 869 -140 873 -5 5 -11
-4 -14 -20z"/>
<path d="M1950 2124 c-41 -16 -40 4 -40 -1081 l0 -1043 90 0 90 0 0 1043 c0
853 -2 1046 -13 1061 -14 19 -96 32 -127 20z"/>
<path d="M1204 1846 c-19 -14 -19 -36 -22 -885 l-2 -871 90 0 90 0 0 869 c0
777 -2 871 -16 885 -20 20 -113 21 -140 2z"/>
<path d="M2657 1842 c-16 -17 -17 -93 -17 -885 l0 -867 90 0 90 0 -2 871 c-3
849 -3 871 -22 885 -29 21 -119 18 -139 -4z"/>
</g>
</svg>
