<?xml version="1.0" standalone="no"?>
<!DOCTYPE svg PUBLIC "-//W3C//DTD SVG 20010904//EN"
 "http://www.w3.org/TR/2001/REC-SVG-20010904/DTD/svg10.dtd">
<svg version="1.0" xmlns="http://www.w3.org/2000/svg"
 width="401.000000pt" height="401.000000pt" viewBox="0 0 401.000000 401.000000"
 preserveAspectRatio="xMidYMid meet">
<metadata>
Created by potrace 1.15, written by Peter Selinger 2001-2017
</metadata>
<g transform="translate(0.000000,401.000000) scale(0.100000,-0.100000)">
<path d="M25 3737 c-12 -9 -16 -22 -13 -38 2 -14 213 -386 467 -827 317 -549
469 -803 483 -808 13 -4 27 0 38 12 23 25 940 1614 940 1630 0 7 -7 20 -16 28
-14 14 -114 16 -948 16 -765 0 -935 -2 -951 -13z"/>
<path d="M2095 3737 c-12 -9 -16 -22 -13 -38 8 -45 929 -1628 950 -1635 13 -4
27 1 38 12 24 25 940 1614 940 1630 0 7 -7 20 -16 28 -14 14 -114 16 -948 16
-765 0 -935 -2 -951 -13z"/>
<path d="M1967 3273 c-80 -128 -607 -1053 -607 -1065 0 -9 7 -19 16 -22 9 -3
291 -6 628 -6 638 0 660 1 643 41 -26 64 -628 1085 -640 1087 -10 2 -26 -12
-40 -35z"/>
<path d="M1047 1943 c-4 -3 -7 -16 -7 -28 0 -19 898 -1590 933 -1633 6 -7 21
-12 35 -10 22 3 87 111 493 813 258 446 468 817 469 825 1 40 10 40 -970 40
-521 0 -950 -3 -953 -7z"/>
</g>
</svg>
